<svg width="60" height="60" viewBox="0 0 60 60" fill="none" xmlns="http://www.w3.org/2000/svg">
<circle cx="30" cy="30" r="30" fill="#FD2C2C" fill-opacity="0.15"/>
<path d="M43.526 14.25C41.7167 14.25 40.25 18.6152 40.25 24H43.526C45.1049 24 45.8943 24 46.3829 23.4549C46.8717 22.9098 46.7866 22.1919 46.6164 20.7562C46.1673 16.9661 44.9532 14.25 43.526 14.25Z" stroke="#141B34" stroke-width="1.5"/>
<path d="M40.25 24.0882V41.2994C40.25 43.7559 40.25 44.9841 39.4993 45.4676C38.2725 46.2578 36.3762 44.6008 35.4223 43.9994C34.6342 43.5023 34.2403 43.2538 33.8028 43.2395C33.3303 43.2239 32.9292 43.4623 32.0777 43.9994L28.9725 45.9577C28.1348 46.4858 27.716 46.75 27.25 46.75C26.784 46.75 26.3651 46.4858 25.5275 45.9577L22.4223 43.9994C21.6342 43.5023 21.2402 43.2538 20.8029 43.2395C20.3303 43.2239 19.9293 43.4623 19.0777 43.9994C18.1239 44.6008 16.2274 46.2578 15.0007 45.4676C14.25 44.9841 14.25 43.7559 14.25 41.2994V24.0882C14.25 19.4504 14.25 17.1315 15.6779 15.6908C17.1057 14.25 19.4038 14.25 24 14.25H43.5" stroke="#141B34" stroke-width="1.5" stroke-linecap="round" stroke-linejoin="round"/>
<path d="M20.75 20.75H33.75" stroke="#141B34" stroke-width="1.5" stroke-linecap="round" stroke-linejoin="round"/>
<path d="M24 27.25H20.75" stroke="#141B34" stroke-width="1.5" stroke-linecap="round" stroke-linejoin="round"/>
<path d="M31.3125 28.6719C29.9663 28.6719 28.875 29.6267 28.875 30.8047C28.875 31.9826 29.9663 32.9375 31.3125 32.9375C32.6587 32.9375 33.75 33.8923 33.75 35.0703C33.75 36.2483 32.6587 37.2031 31.3125 37.2031M31.3125 28.6719C32.3738 28.6719 33.2766 29.2653 33.6112 30.0937M31.3125 28.6719V27.25M31.3125 37.2031C30.2512 37.2031 29.3484 36.6097 29.0138 35.7812M31.3125 37.2031V38.625" stroke="#141B34" stroke-width="1.5" stroke-linecap="round"/>
</svg>
