<svg width="79" height="37" viewBox="0 0 79 37" fill="none" xmlns="http://www.w3.org/2000/svg">
<path d="M17.9137 9.99059C16.6126 9.78815 15.3624 9.73957 14.124 9.58572C11.3219 9.22942 10.2716 7.15644 11.8274 4.72717C13.7203 1.78775 16.5577 0.411161 19.8536 0.233014C26.947 -0.171864 34.0521 0.0791594 41.1534 0.0548667C52.3578 0.0224764 63.5623 0.0548667 74.7707 0.0548667C74.9352 0.0548667 75.0959 0.0548667 75.2605 0.0548667C77.271 0.0994033 78.1998 1.00229 78.2507 3.07527C78.4232 10.1971 78.3252 17.3189 78.2703 24.4407C78.2703 25.461 78.239 26.4651 78.2703 27.4935C78.2703 28.2385 78.1763 29.0118 78.8347 29.6191C79.0228 29.7892 79.0032 30.2548 78.9953 30.5827C78.9758 31.769 78.8739 32.9553 78.8817 34.1416C78.8817 35.4372 78.3056 35.9555 77.079 35.9514C72.2795 35.9352 67.4774 35.9447 62.6727 35.9798C61.591 35.9798 61.7321 35.3158 61.8301 34.6234C62.222 31.9836 61.6616 29.6596 59.655 27.8579C58.6894 27.0249 57.5044 26.5095 56.2528 26.3782C55.0012 26.2469 53.7402 26.5056 52.6322 27.121C51.4989 27.7396 50.5717 28.6956 49.9708 29.8651C49.3698 31.0347 49.1228 32.3638 49.2618 33.6801C49.5322 35.9879 49.5322 35.9676 47.2396 35.9636C37.4734 35.9636 27.7033 35.9636 17.9333 36C16.8007 36 16.6713 35.6559 16.8163 34.6194C17.3415 30.8864 15.9542 28.0522 13.1207 26.8578C8.75103 25.0116 4.07956 28.5138 4.24416 33.51C4.29902 35.2186 4.29902 35.2186 2.59817 35.085C0.756232 34.9392 0.301621 34.5303 0.0939133 32.6557C0.0187645 31.7266 -0.0113112 30.7942 0.00378374 29.862C0.00378374 29.6151 0.00378279 29.2183 0.125272 29.1373C1.58706 28.2668 0.995295 26.8133 1.03449 25.6068C1.14814 21.8414 1.10111 21.8454 4.56159 20.7199C6.47799 20.0964 8.38262 19.4405 10.3069 18.8412C10.767 18.6929 11.1895 18.441 11.544 18.1035C11.8984 17.766 12.176 17.3514 12.3565 16.8897C13.6419 14.1285 15.1194 11.5129 17.9137 9.99059ZM22.299 10.9502C20.0456 10.8327 17.9646 11.1243 16.5146 13.2458C15.6951 14.3562 14.9762 15.5421 14.367 16.7885C14.1984 17.165 13.5283 17.3796 13.8065 17.8736C14.0339 18.2785 14.6217 18.157 15.0528 18.1368C15.7229 18.1044 16.1736 18.1853 16.06 19.0761C15.9777 19.732 16.3931 19.813 16.9378 19.7239C19.2422 19.3635 21.5427 19.0113 23.8549 18.6995C24.2977 18.6388 24.3291 18.3878 24.4349 18.0517C24.8268 16.8007 24.8268 15.4848 25.0698 14.2094C25.7007 10.9421 25.6224 10.8489 22.4244 10.9461L22.299 10.9502ZM59.8902 10.8206H56.9392C54.1959 10.8206 54.2194 10.8206 54.4859 13.6345C54.5642 14.4767 54.8778 14.8208 55.7047 14.8006C57.9581 14.756 60.2155 14.8006 62.4689 14.752C65.2749 14.6629 65.1848 15.4605 65.1142 11.8206C65.1142 11.0352 64.8007 10.7882 64.0757 10.8084C62.6805 10.8449 61.2853 10.8165 59.8902 10.8206Z" fill="#2B91DB"/>
<path d="M11.8893 36.8385L11.275 36.9719C11.1517 36.9088 11.0138 36.8781 10.8748 36.8831C10.7358 36.888 10.6005 36.9283 10.4822 37L9.19643 36.8736C9.08813 36.7383 8.95264 36.6264 8.79841 36.5449C8.64418 36.4633 8.47451 36.4139 8.29999 36.3996C8.16427 36.2838 8.03212 36.1328 7.86426 36.354L7.89641 36.3224C7.79641 35.8343 7.36068 35.5851 7.05711 35.2691C5.37494 33.4785 5.81068 30.5327 7.5857 29.0511C8.45997 28.3128 9.59256 27.9387 10.7429 28.0082C11.8932 28.0777 12.9707 28.5853 13.7465 29.4232C15.5108 31.3508 15.4036 33.963 13.4822 35.7185L12.9893 36.1644C12.5793 36.3122 12.2048 36.5417 11.8893 36.8385Z" fill="#2B91DB"/>
<path d="M56.8893 36.8385L56.275 36.9719C56.1517 36.9088 56.0138 36.8781 55.8748 36.8831C55.7358 36.888 55.6005 36.9283 55.4822 37L54.1964 36.8736C54.0881 36.7383 53.9526 36.6264 53.7984 36.5449C53.6442 36.4633 53.4745 36.4139 53.3 36.3996C53.1643 36.2838 53.0321 36.1328 52.8643 36.354L52.8964 36.3224C52.7964 35.8343 52.3607 35.5851 52.0571 35.2691C50.3749 33.4785 50.8107 30.5327 52.5857 29.0511C53.46 28.3128 54.5926 27.9387 55.7429 28.0082C56.8932 28.0777 57.9707 28.5853 58.7465 29.4232C60.5108 31.3508 60.4036 33.963 58.4822 35.7185L57.9893 36.1644C57.5793 36.3122 57.2048 36.5417 56.8893 36.8385Z" fill="#2B91DB"/>
</svg>
