<svg width="60" height="60" viewBox="0 0 60 60" fill="none" xmlns="http://www.w3.org/2000/svg">
<circle cx="30" cy="30" r="30" fill="#2CA5FD" fill-opacity="0.15"/>
<path d="M8.25 10.9688C7.3698 10.9688 6.65625 11.6823 6.65625 12.5625C6.65625 13.4427 7.3698 14.1562 8.25 14.1562V10.9688ZM32.6231 22.1895C33.2455 22.8118 34.2545 22.8118 34.8769 22.1895C35.4993 21.5671 35.4993 20.5579 34.8769 19.9355L32.6231 22.1895ZM8.25 14.1562H22.6094V10.9688H8.25V14.1562ZM25.9901 15.5566L32.6231 22.1895L34.8769 19.9355L28.2441 13.3027L25.9901 15.5566ZM22.6094 14.1562C23.8775 14.1562 25.0936 14.66 25.9901 15.5566L28.2441 13.3027C26.7496 11.8083 24.7228 10.9688 22.6094 10.9688V14.1562Z" fill="#141B34"/>
<path d="M14.625 31.6875H8.25" stroke="#141B34" stroke-width="1.5" stroke-linecap="round" stroke-linejoin="round"/>
<path d="M23.1895 17.8105C22.5672 17.1882 21.558 17.1882 20.9356 17.8105C20.3133 18.4329 20.3133 19.4421 20.9356 20.0644L23.1895 17.8105ZM18.8751 24.25L20.002 23.123C19.3797 22.5007 18.3705 22.5007 17.7481 23.123L18.8751 24.25ZM12.3938 22.975C11.6897 22.4469 10.6907 22.5896 10.1626 23.2937C9.63447 23.9979 9.77718 24.9969 10.4813 25.525L12.3938 22.975ZM20.9356 20.0644L25.1856 24.3144L27.4395 22.0605L23.1895 17.8105L20.9356 20.0644ZM23.1895 26.3106L20.002 23.123L17.7481 25.3769L20.9356 28.5644L23.1895 26.3106ZM13.0376 23.4578L12.3938 22.975L10.4813 25.525L11.1251 26.0078L13.0376 23.4578ZM17.7481 23.123C16.48 24.3911 14.4724 24.5339 13.0376 23.4578L11.1251 26.0078C13.8289 28.0357 17.6123 27.7667 20.002 25.3769L17.7481 23.123ZM25.1856 26.3106C24.6344 26.8618 23.7407 26.8618 23.1895 26.3106L20.9356 28.5644C22.7317 30.3604 25.6436 30.3604 27.4395 28.5644L25.1856 26.3106ZM25.1856 24.3144C25.7369 24.8656 25.7369 25.7594 25.1856 26.3106L27.4395 28.5644C29.2355 26.7685 29.2355 23.8566 27.4395 22.0605L25.1856 24.3144Z" fill="#141B34"/>
<path d="M14.625 26.375V35.9375C14.625 39.9444 14.625 41.9478 15.8698 43.1927C17.1146 44.4375 19.1181 44.4375 23.125 44.4375H42.25C46.2569 44.4375 48.2603 44.4375 49.5052 43.1927C50.75 41.9478 50.75 39.9444 50.75 35.9375V29.5625C50.75 25.5556 50.75 23.5521 49.5052 22.3073C48.2603 21.0625 46.2569 21.0625 42.25 21.0625H24.1875" stroke="#141B34" stroke-width="1.5" stroke-linecap="round" stroke-linejoin="round"/>
<path d="M43.295 33.0984C43.295 37.7158 39.5518 41.459 34.9344 41.459C30.3169 41.459 26.5737 37.7158 26.5737 33.0984C26.5737 28.4809 30.3169 24.7377 34.9344 24.7377C39.5518 24.7377 43.295 28.4809 43.295 33.0984Z" stroke="#141B34" stroke-width="1.5"/>
<path d="M37.2003 31.4773C37.1174 30.8397 36.3853 29.8095 35.0688 29.8094C33.5391 29.8094 32.8955 30.6566 32.7649 31.0802C32.5612 31.6468 32.6019 32.8117 34.3949 32.9387C36.6361 33.0975 37.534 33.3621 37.4197 34.7337C37.3055 36.1053 36.0561 36.4017 35.0688 36.3698C34.0814 36.3381 32.466 35.8846 32.4033 34.6646M34.9121 28.9164V29.8125M34.9121 36.3616V37.277" stroke="#141B34" stroke-width="1.5" stroke-linecap="round"/>
</svg>
