<svg width="54" height="51" viewBox="0 0 54 51" fill="none" xmlns="http://www.w3.org/2000/svg">
<g filter="url(#filter0_d_85_221)">
<path d="M6.25 7.96875C5.3698 7.96875 4.65625 8.6823 4.65625 9.5625C4.65625 10.4427 5.3698 11.1562 6.25 11.1562V7.96875ZM30.6231 19.1895C31.2455 19.8118 32.2545 19.8118 32.8769 19.1895C33.4993 18.5671 33.4993 17.5579 32.8769 16.9355L30.6231 19.1895ZM6.25 11.1562H20.6094V7.96875H6.25V11.1562ZM23.9901 12.5566L30.6231 19.1895L32.8769 16.9355L26.2441 10.3027L23.9901 12.5566ZM20.6094 11.1562C21.8775 11.1562 23.0936 11.66 23.9901 12.5566L26.2441 10.3027C24.7496 8.80832 22.7228 7.96875 20.6094 7.96875V11.1562Z" fill="#141B34"/>
<path d="M12.625 28.6875H6.25" stroke="#141B34" stroke-width="1.5" stroke-linecap="round" stroke-linejoin="round"/>
<path d="M21.1895 14.8105C20.5672 14.1882 19.558 14.1882 18.9356 14.8105C18.3133 15.4329 18.3133 16.4421 18.9356 17.0644L21.1895 14.8105ZM16.8751 21.25L18.002 20.123C17.3797 19.5007 16.3705 19.5007 15.7481 20.123L16.8751 21.25ZM10.3938 19.975C9.68968 19.4469 8.69072 19.5896 8.1626 20.2937C7.63447 20.9979 7.77718 21.9969 8.48134 22.525L10.3938 19.975ZM18.9356 17.0644L23.1856 21.3144L25.4395 19.0605L21.1895 14.8105L18.9356 17.0644ZM21.1895 23.3106L18.002 20.123L15.7481 22.3769L18.9356 25.5644L21.1895 23.3106ZM11.0376 20.4578L10.3938 19.975L8.48134 22.525L9.12509 23.0078L11.0376 20.4578ZM15.7481 20.123C14.48 21.3911 12.4724 21.5339 11.0376 20.4578L9.12509 23.0078C11.8289 25.0357 15.6123 24.7667 18.002 22.3769L15.7481 20.123ZM23.1856 23.3106C22.6344 23.8618 21.7407 23.8618 21.1895 23.3106L18.9356 25.5644C20.7317 27.3604 23.6436 27.3604 25.4395 25.5644L23.1856 23.3106ZM23.1856 21.3144C23.7369 21.8656 23.7369 22.7594 23.1856 23.3106L25.4395 25.5644C27.2355 23.7685 27.2355 20.8566 25.4395 19.0605L23.1856 21.3144Z" fill="#141B34"/>
<path d="M12.625 23.375V32.9375C12.625 36.9444 12.625 38.9478 13.8698 40.1927C15.1146 41.4375 17.1181 41.4375 21.125 41.4375H40.25C44.2569 41.4375 46.2603 41.4375 47.5052 40.1927C48.75 38.9478 48.75 36.9444 48.75 32.9375V26.5625C48.75 22.5556 48.75 20.5521 47.5052 19.3073C46.2603 18.0625 44.2569 18.0625 40.25 18.0625H22.1875" stroke="#141B34" stroke-width="1.5" stroke-linecap="round" stroke-linejoin="round"/>
<path d="M41.295 30.0984C41.295 34.7158 37.5518 38.459 32.9344 38.459C28.3169 38.459 24.5737 34.7158 24.5737 30.0984C24.5737 25.4809 28.3169 21.7377 32.9344 21.7377C37.5518 21.7377 41.295 25.4809 41.295 30.0984Z" stroke="#141B34" stroke-width="1.5"/>
<path d="M35.2003 28.4773C35.1174 27.8397 34.3853 26.8095 33.0688 26.8094C31.5391 26.8094 30.8955 27.6566 30.7649 28.0802C30.5612 28.6468 30.6019 29.8117 32.3949 29.9387C34.6361 30.0975 35.534 30.3621 35.4197 31.7337C35.3055 33.1053 34.0561 33.4017 33.0688 33.3698C32.0814 33.3381 30.466 32.8846 30.4033 31.6646M32.9121 25.9164V26.8125M32.9121 33.3616V34.277" stroke="#141B34" stroke-width="1.5" stroke-linecap="round"/>
</g>
<defs>
<filter id="filter0_d_85_221" x="-2" y="0" width="59" height="59" filterUnits="userSpaceOnUse" color-interpolation-filters="sRGB">
<feFlood flood-opacity="0" result="BackgroundImageFix"/>
<feColorMatrix in="SourceAlpha" type="matrix" values="0 0 0 0 0 0 0 0 0 0 0 0 0 0 0 0 0 0 127 0" result="hardAlpha"/>
<feOffset dy="4"/>
<feGaussianBlur stdDeviation="2"/>
<feComposite in2="hardAlpha" operator="out"/>
<feColorMatrix type="matrix" values="0 0 0 0 0 0 0 0 0 0 0 0 0 0 0 0 0 0 0.25 0"/>
<feBlend mode="normal" in2="BackgroundImageFix" result="effect1_dropShadow_85_221"/>
<feBlend mode="normal" in="SourceGraphic" in2="effect1_dropShadow_85_221" result="shape"/>
</filter>
</defs>
</svg>
