<svg width="78" height="25" viewBox="0 0 78 25" fill="none" xmlns="http://www.w3.org/2000/svg">
<path d="M37.4882 23C32.1161 23 26.7441 22.9766 21.3682 23C20.3228 23 19.9821 22.7116 20.1622 21.6709C20.5068 19.6597 20.4402 17.6875 19.4104 15.8244C17.8443 12.9947 14.6845 11.4162 11.6735 11.9736C8.14956 12.6284 5.7572 14.9786 5.25994 18.3345C5.17392 18.94 5.13463 19.5511 5.14246 20.1625C5.16595 21.9983 5.14248 22.0178 3.25522 21.9983C0.819799 21.971 0.357753 21.3786 0.0523464 18.9776C-0.292215 16.2493 1.13302 14.2147 2.31158 12.0593C2.80493 11.1551 3.75249 10.7575 4.73136 10.5003C9.84553 9.15063 15.0589 8.20576 20.3228 7.67446C21.8498 7.53805 23.1145 6.7858 24.4144 6.11541C27.8169 4.32639 31.1882 2.46721 34.8726 1.27453C36.8154 0.617393 38.8441 0.245811 40.8946 0.171501C44.3794 0.0857526 47.8642 0.0662634 51.3528 3.45342e-06C52.2985 -0.0010092 53.231 0.2207 54.0741 0.647014C56.764 1.94103 59.5087 3.1454 61.9755 4.84867C64.0076 6.24793 66.3647 6.55194 68.6945 7.00407C70.6248 7.39383 72.5355 7.84986 74.4424 8.31757C75.6836 8.62159 76.4353 9.38553 76.5215 10.7185C76.588 11.7358 76.6546 12.7531 76.7799 13.7665C76.9013 14.7136 76.9718 15.614 77.563 16.4948C78.8042 18.3345 77.2262 21.3903 75.0297 21.667C74.0508 21.7917 73.0719 21.8736 72.0892 21.9515C70.429 22.0802 70.2959 21.9515 70.3546 20.334C70.429 18.3111 70.0296 16.4364 68.7454 14.8149C66.6897 12.2191 63.7218 11.2798 60.5229 12.1957C59.066 12.6433 57.776 13.5125 56.8172 14.6925C55.8584 15.8725 55.2742 17.31 55.1391 18.8217C55.0295 19.7157 55.0559 20.621 55.2174 21.5072C55.4328 22.5674 54.9746 22.8909 53.984 22.8909C51.3176 22.8909 48.6512 22.9221 45.9847 22.9298C43.1538 22.9298 40.323 22.9298 37.4921 22.9298L37.4882 23ZM42.6331 1.74615C39.3833 1.93324 36.1647 2.21387 33.2086 3.72226C31.5836 4.55246 29.9979 5.4645 28.3965 6.34146C28.1537 6.47009 27.7582 6.52466 27.8326 6.87934C27.907 7.23403 28.3142 7.2691 28.6392 7.21843C29.7277 7.1093 30.1388 7.57703 29.9313 8.64108C29.8295 9.17116 29.9979 9.47518 30.64 9.444C35.0097 9.23353 39.3833 9.02694 43.7568 8.86324C44.5399 8.83206 45.002 8.60211 45.1351 7.81088C45.4052 6.16218 45.6911 4.51737 45.9769 2.87256C46.1139 2.06965 45.926 1.62532 44.9628 1.73056C44.1871 1.77672 43.4094 1.78192 42.6331 1.74615ZM52.0302 8.60601V8.47348C53.1344 8.47348 54.2346 8.47348 55.3388 8.47348C55.9848 8.47348 56.7718 8.50857 57.0381 7.81479C57.3043 7.12101 56.8188 6.49738 56.3137 5.98289C54.7303 4.4512 52.9247 3.16492 50.9574 2.16709C50.5565 1.96563 50.1276 1.82506 49.6849 1.75004C48.8195 1.58244 48.2361 1.90205 48.1187 2.82189C47.8916 4.51347 47.6788 6.20245 47.4804 7.88883C47.3943 8.62159 47.7154 8.89443 48.4906 8.80868C49.6574 8.69175 50.8438 8.67227 52.0263 8.60601H52.0302Z" fill="#2B91DB"/>
<path d="M13.8757 24.8967C13.1107 25.0261 12.332 25.034 11.5648 24.9202C11.1968 24.528 10.6595 24.5515 10.2032 24.375C7.39557 22.414 6.40202 19.8411 7.34773 16.9231C8.29343 14.0051 11.0275 12.4442 13.9198 13.1815C16.5214 13.8443 18.262 16.7113 17.9676 19.6725C17.7689 21.6923 16.6355 22.9788 15.2188 24.1005L13.8757 24.8967Z" fill="#2B91DB"/>
<path d="M64.7591 24.9056C63.9875 25.0944 63.2122 24.9449 62.4369 24.9253C61.9935 24.5272 61.4248 24.3233 60.8457 24.3548L59.6201 23.0604C57.7446 21.0932 57.4566 17.7255 58.9703 15.5026C59.7377 14.3502 60.8654 13.5271 62.151 13.181C63.4366 12.8349 64.7959 12.9884 65.9848 13.6141C67.1522 14.2747 68.0667 15.3485 68.5708 16.6506C69.0749 17.9527 69.137 19.4014 68.7463 20.747C68.2442 22.3522 67.0997 23.383 65.8777 24.3391C65.4901 24.5161 65.0618 24.5397 64.7591 24.9056Z" fill="#2B91DB"/>
</svg>
