<svg width="74" height="28" viewBox="0 0 74 28" fill="none" xmlns="http://www.w3.org/2000/svg">
<path d="M51.1548 0.0449061C54.7719 0.166688 58.397 0.0733218 61.9903 0.617281C62.992 0.767478 63.8704 0.998863 63.8028 2.31817C63.775 2.83777 64.2242 3.02856 64.5302 3.28024C66.4779 4.87153 68.4216 6.47499 70.4091 8.00944C71.4426 8.82132 72.0706 9.73062 72.0467 11.1068C72.0467 11.9186 72.2296 12.7305 72.2335 13.518C72.2335 14.5166 72.4522 15.1824 73.426 15.7669C74.3999 16.3515 73.8712 17.6464 73.7281 18.6085C73.5901 19.3036 73.5156 20.0103 73.5055 20.7194C73.5413 22.262 72.949 22.8465 71.4306 22.9196C71.1802 22.9196 70.9298 22.948 70.6794 22.944C69.7254 22.944 68.6721 23.1388 67.8373 22.8019C66.8317 22.3959 67.257 21.101 67.0106 20.212C66.5439 18.5682 65.5398 17.1374 64.1656 16.158C62.7914 15.1785 61.13 14.7096 59.4583 14.8292C57.7226 15.0035 56.103 15.7985 54.8855 17.0738C53.668 18.3491 52.9309 20.0228 52.8043 21.7992C52.7447 22.6111 52.5062 22.9196 51.7152 22.9196C41.4309 22.9196 31.1492 22.9318 20.8702 22.9561C19.7691 22.9561 19.4869 22.5218 19.3836 21.4826C19.0576 18.1863 16.625 15.4787 13.6359 14.9266C10.456 14.3421 7.47485 15.9415 5.78155 18.8602C5.16942 19.9156 5.13364 21.0279 4.8236 22.1077C4.76795 22.3026 4.8236 22.5746 4.70435 22.7045C4.18365 23.2931 0.912319 22.7775 0.602279 22.0306C-0.288094 19.8953 -0.101274 17.7236 0.57843 15.5883C0.775695 15.079 0.935145 14.5552 1.05542 14.0214C1.34559 12.0891 2.49831 11.0256 4.29098 10.6156C7.09069 9.96336 9.92205 9.46201 12.7733 9.1136C14.7171 8.88221 16.6648 8.70765 18.6045 8.45191C20.3972 8.21241 21.7844 7.05548 23.271 6.14212C25.7593 4.60767 28.0886 2.80935 30.8233 1.71332C33.0254 0.828369 35.3308 0.536093 37.664 0.385895C42.1636 0.105797 46.6552 -0.0931133 51.1548 0.0449061ZM24.8848 7.10014C25.2431 7.22038 25.6099 7.31266 25.9819 7.37617C26.9279 7.4533 27.5718 7.70498 27.3771 8.9228C27.2578 9.70627 27.9534 9.5926 28.4344 9.57231C31.9203 9.39775 35.4023 9.2029 38.8883 9.04459C39.6276 9.01211 40.0052 8.7929 40.0808 7.95667C40.196 6.64954 40.4584 5.3546 40.6611 4.05559C40.9632 2.12332 40.9552 2.2654 39.0711 2.14767C33.7249 1.8148 29.1777 3.79579 24.8848 7.10014ZM47.4581 9.04865V8.89033C49.0481 8.80914 50.6182 8.7036 52.1962 8.65894C52.86 8.65894 53.0587 8.37885 53.015 7.72528C52.9103 6.62849 52.7175 5.54234 52.4387 4.47777C52.3653 4.11419 52.1957 3.77813 51.9483 3.50615C51.7009 3.23417 51.3852 3.03669 51.0355 2.93519C48.7023 2.05837 46.2935 2.24104 43.8807 2.24104C43.1772 2.24104 43.0222 2.785 42.8751 3.33708C42.4538 4.96083 42.4061 6.61301 42.1994 8.253C42.1199 8.88221 42.3663 9.06488 42.9625 9.06488C44.4571 9.01211 45.9596 9.04865 47.4581 9.04865ZM68.2825 7.89984C66.2951 6.02439 64.3076 4.13678 61.8432 2.92302C61.7364 2.85135 61.6081 2.82097 61.4813 2.83735C61.3545 2.85372 61.2376 2.91577 61.1516 3.01232C60.9409 3.31272 61.1913 3.58876 61.3623 3.79985C62.4792 5.17598 63.7074 6.44251 65.2894 7.25845C66.1962 7.78857 67.2436 8.01301 68.2825 7.89984ZM55.3801 8.5331C55.5868 8.5331 55.7776 8.50063 56.0001 8.47627C57.5106 8.30172 57.7173 7.83489 56.8269 6.53588C56.1164 5.59632 55.2754 4.7676 54.3307 4.07589C54.1479 3.92975 53.8776 3.66995 53.6947 3.86886C53.6101 3.98326 53.5543 4.11709 53.5322 4.25863C53.51 4.40017 53.5221 4.5451 53.5675 4.68074C54.2671 5.57786 54.1797 6.67796 54.3824 7.69281C54.5016 8.30172 54.756 8.60617 55.3801 8.5331Z" fill="#2B91DB"/>
<path d="M62.0575 27.8445L60.4043 28L57.948 27.2267C53.9481 24.5246 54.6259 20.0826 56.424 17.9603C56.9147 17.3683 57.5124 16.8895 58.1809 16.5531C58.8494 16.2166 59.5747 16.0296 60.3127 16.0032C61.0507 15.9769 61.7861 16.1118 62.4739 16.3999C63.1618 16.6879 63.7879 17.123 64.3141 17.6787C66.6176 20.1288 66.551 23.7597 64.173 26.2476C63.7813 26.6678 63.2093 26.8863 62.9978 27.5083H63.0409C62.8607 27.2772 62.6961 27.4201 62.5316 27.5083C62.4798 27.4955 62.4261 27.4941 62.3738 27.5042C62.3214 27.5143 62.2716 27.5357 62.2272 27.5672C62.1829 27.5987 62.145 27.6395 62.1158 27.6871C62.0866 27.7348 62.0668 27.7884 62.0575 27.8445Z" fill="#2B91DB"/>
<path d="M12.1707 28L11.7784 27.9665L10.0562 27.2883C7.27489 25.2997 6.5256 23.3363 7.27095 20.1713C7.55796 19.0456 8.16464 18.0423 9.00757 17.2994C9.8505 16.5565 10.8883 16.1105 11.9784 16.0225C13.1511 15.9125 14.3259 16.2075 15.3295 16.864C16.3332 17.5205 17.1126 18.5038 17.5529 19.6689C17.9918 20.7357 18.1112 21.9211 17.895 23.0631C17.6787 24.2051 17.1373 25.2479 16.3446 26.0491C15.8896 26.4678 15.3953 26.8864 14.9206 27.305C14.0357 27.6617 13.1115 27.8952 12.1707 28Z" fill="#2B91DB"/>
</svg>
