<svg width="21" height="24" viewBox="0 0 21 24" fill="none" xmlns="http://www.w3.org/2000/svg">
<path fill-rule="evenodd" clip-rule="evenodd" d="M0.947239 9.1366C1.13988 6.86116 2.20333 4.73949 3.9265 3.19276C5.64966 1.64603 7.90654 0.78733 10.2492 0.787109H10.7508C13.0934 0.78733 15.3503 1.64603 17.0735 3.19276C18.7966 4.73949 19.8601 6.86116 20.0527 9.1366C20.268 11.677 19.4632 14.1996 17.808 16.1732L12.2419 22.808C12.031 23.0596 11.7652 23.2624 11.464 23.4017C11.1627 23.5409 10.8334 23.6132 10.5 23.6132C10.1666 23.6132 9.83729 23.5409 9.53602 23.4017C9.23476 23.2624 8.96902 23.0596 8.75806 22.808L3.19317 16.1732C1.53753 14.1998 0.732349 11.6771 0.947239 9.1366ZM14.5993 8.74386C14.7532 8.58294 14.8369 8.37011 14.833 8.15019C14.829 7.93028 14.7376 7.72045 14.578 7.56492C14.4184 7.4094 14.2031 7.32031 13.9775 7.31643C13.7519 7.31255 13.5335 7.39418 13.3684 7.54412L9.91935 10.9057L8.21225 9.24186C8.13252 9.15846 8.03636 9.09157 7.92952 9.04517C7.82269 8.99878 7.70735 8.97383 7.59041 8.97182C7.47346 8.96981 7.3573 8.99078 7.24885 9.03347C7.1404 9.07616 7.04188 9.13971 6.95918 9.22032C6.87647 9.30092 6.81127 9.39694 6.76747 9.50264C6.72366 9.60834 6.70215 9.72155 6.70421 9.83553C6.70628 9.94951 6.73187 10.0619 6.77948 10.166C6.82708 10.2702 6.89572 10.3639 6.98129 10.4416L9.30386 12.7053C9.46717 12.8642 9.68854 12.9535 9.91935 12.9535C10.1502 12.9535 10.3715 12.8642 10.5348 12.7053L14.5993 8.74386Z" fill="#C2C2C2"/>
</svg>
