<svg width="21" height="22" viewBox="0 0 21 22" fill="none" xmlns="http://www.w3.org/2000/svg">
<path d="M6.83482 2.44669C6.51076 2.44669 6.19998 2.57542 5.97084 2.80456C5.7417 3.0337 5.61297 3.34448 5.61297 3.66853C5.61297 3.99259 5.7417 4.30337 5.97084 4.53251C6.19998 4.76165 6.51076 4.89038 6.83482 4.89038C7.15887 4.89038 7.46965 4.76165 7.69879 4.53251C7.92793 4.30337 8.05666 3.99259 8.05666 3.66853C8.05666 3.34448 7.92793 3.0337 7.69879 2.80456C7.46965 2.57542 7.15887 2.44669 6.83482 2.44669ZM3.37699 2.44669C3.62943 1.73126 4.09756 1.11174 4.71687 0.67353C5.33617 0.235322 6.07616 0 6.83482 0C7.59348 0 8.33346 0.235322 8.95277 0.67353C9.57207 1.11174 10.0402 1.73126 10.2926 2.44669H19.0533C19.3773 2.44669 19.6881 2.57542 19.9173 2.80456C20.1464 3.0337 20.2751 3.34448 20.2751 3.66853C20.2751 3.99259 20.1464 4.30337 19.9173 4.53251C19.6881 4.76165 19.3773 4.89038 19.0533 4.89038H10.2926C10.0402 5.60581 9.57207 6.22533 8.95277 6.66354C8.33346 7.10174 7.59348 7.33707 6.83482 7.33707C6.07616 7.33707 5.33617 7.10174 4.71687 6.66354C4.09756 6.22533 3.62943 5.60581 3.37699 4.89038H1.94743C1.62338 4.89038 1.3126 4.76165 1.08346 4.53251C0.854316 4.30337 0.725586 3.99259 0.725586 3.66853C0.725586 3.34448 0.854316 3.0337 1.08346 2.80456C1.3126 2.57542 1.62338 2.44669 1.94743 2.44669H3.37699ZM14.1659 9.77776C13.8418 9.77776 13.5311 9.90649 13.3019 10.1356C13.0728 10.3648 12.944 10.6756 12.944 10.9996C12.944 11.3237 13.0728 11.6344 13.3019 11.8636C13.5311 12.0927 13.8418 12.2215 14.1659 12.2215C14.4899 12.2215 14.8007 12.0927 15.0299 11.8636C15.259 11.6344 15.3877 11.3237 15.3877 10.9996C15.3877 10.6756 15.259 10.3648 15.0299 10.1356C14.8007 9.90649 14.4899 9.77776 14.1659 9.77776ZM10.7081 9.77776C10.9605 9.06233 11.4286 8.44282 12.0479 8.00461C12.6673 7.5664 13.4072 7.33108 14.1659 7.33108C14.9246 7.33108 15.6645 7.5664 16.2838 8.00461C16.9031 8.44282 17.3713 9.06233 17.6237 9.77776H19.0533C19.3773 9.77776 19.6881 9.90649 19.9173 10.1356C20.1464 10.3648 20.2751 10.6756 20.2751 10.9996C20.2751 11.3237 20.1464 11.6344 19.9173 11.8636C19.6881 12.0927 19.3773 12.2215 19.0533 12.2215H17.6237C17.3713 12.9369 16.9031 13.5564 16.2838 13.9946C15.6645 14.4328 14.9246 14.6681 14.1659 14.6681C13.4072 14.6681 12.6673 14.4328 12.0479 13.9946C11.4286 13.5564 10.9605 12.9369 10.7081 12.2215H1.94743C1.62338 12.2215 1.3126 12.0927 1.08346 11.8636C0.854316 11.6344 0.725586 11.3237 0.725586 10.9996C0.725586 10.6756 0.854316 10.3648 1.08346 10.1356C1.3126 9.90649 1.62338 9.77776 1.94743 9.77776H10.7081ZM6.83482 17.1088C6.51076 17.1088 6.19998 17.2376 5.97084 17.4667C5.7417 17.6959 5.61297 18.0066 5.61297 18.3307C5.61297 18.6547 5.7417 18.9655 5.97084 19.1947C6.19998 19.4238 6.51076 19.5525 6.83482 19.5525C7.15887 19.5525 7.46965 19.4238 7.69879 19.1947C7.92793 18.9655 8.05666 18.6547 8.05666 18.3307C8.05666 18.0066 7.92793 17.6959 7.69879 17.4667C7.46965 17.2376 7.15887 17.1088 6.83482 17.1088ZM3.37699 17.1088C3.62943 16.3934 4.09756 15.7739 4.71687 15.3357C5.33617 14.8975 6.07616 14.6622 6.83482 14.6622C7.59348 14.6622 8.33346 14.8975 8.95277 15.3357C9.57207 15.7739 10.0402 16.3934 10.2926 17.1088H19.0533C19.3773 17.1088 19.6881 17.2376 19.9173 17.4667C20.1464 17.6959 20.2751 18.0066 20.2751 18.3307C20.2751 18.6547 20.1464 18.9655 19.9173 19.1947C19.6881 19.4238 19.3773 19.5525 19.0533 19.5525H10.2926C10.0402 20.268 9.57207 20.8875 8.95277 21.3257C8.33346 21.7639 7.59348 21.9992 6.83482 21.9992C6.07616 21.9992 5.33617 21.7639 4.71687 21.3257C4.09756 20.8875 3.62943 20.268 3.37699 19.5525H1.94743C1.62338 19.5525 1.3126 19.4238 1.08346 19.1947C0.854316 18.9655 0.725586 18.6547 0.725586 18.3307C0.725586 18.0066 0.854316 17.6959 1.08346 17.4667C1.3126 17.2376 1.62338 17.1088 1.94743 17.1088H3.37699Z" fill="#2B91DB"/>
</svg>
