<svg width="74" height="25" viewBox="0 0 74 25" fill="none" xmlns="http://www.w3.org/2000/svg">
<path d="M37.2436 22.968C32.1876 22.968 27.1316 22.921 22.0796 22.9994C20.8106 23.019 20.6191 22.5681 20.7587 21.5016C21.1857 18.2943 20.5153 15.4281 17.7818 13.3461C15.5511 11.6484 12.9932 11.3857 10.4233 12.311C7.51816 13.3579 5.87004 15.5379 5.40315 18.5492C5.33193 19.0781 5.30259 19.6116 5.31537 20.145C5.31537 21.98 5.31538 21.98 3.38396 21.9525C0.782133 21.9172 0.339186 21.431 0.0438861 18.8981C-0.2993 15.9378 1.43257 13.8794 3.0647 11.7738C3.51563 11.1896 4.28582 10.9622 5.02806 10.7544C10.2158 9.31543 15.5631 8.55478 20.8705 7.68826C23.2648 7.29616 25.0446 5.87288 27.0398 4.81031C30.36 3.04198 33.7639 1.45402 37.4472 0.681601C40.8351 -0.0359248 44.3388 -0.0594542 47.8225 0.0464102C51.3063 0.152275 54.8219 0.438502 58.3216 0.740412C62.1087 1.07761 65.1614 3.00277 68.2381 4.87697C68.9684 5.32003 69.7984 5.55136 70.4728 6.11205C70.8904 6.41462 71.2431 6.79511 71.5108 7.23175C71.7785 7.66839 71.956 8.15262 72.0331 8.65672C72.3683 10.9701 72.5559 13.3618 73.3021 15.5458C73.8328 17.1141 74.1681 18.5452 73.9127 20.1371C73.7131 21.3683 71.6381 22.4897 70.4449 22.0152C69.9022 21.7996 70.0458 21.3683 70.0738 20.9723C70.1735 19.0667 69.982 17.2278 68.9724 15.5301C67.3402 12.7854 64.8222 11.6601 61.7216 11.8405C58.7726 12.013 56.6656 13.5539 55.3607 16.1535C54.4987 17.8904 54.4588 19.7254 54.6344 21.5761C54.7142 22.4348 54.371 22.819 53.5569 22.8465C52.0964 22.8974 50.6359 22.9406 49.1674 22.9445C45.1768 22.9445 41.2262 22.9445 37.2556 22.9445L37.2436 22.968ZM37.523 9.04097V8.80572C39.3985 8.80572 41.2781 8.80572 43.1536 8.80572C43.9517 8.80572 44.4146 8.51164 44.5463 7.72354C44.8469 5.89379 45.1542 4.07449 45.4681 2.26564C45.5519 1.78729 45.4083 1.58733 44.8895 1.60693C41.1743 1.75593 37.4671 1.82258 34.0153 3.50465C32.4191 4.28883 30.783 5.02204 29.2266 5.90817C28.8515 6.12382 28.1372 6.12773 28.2131 6.64529C28.2889 7.16285 28.9593 6.99033 29.4102 7.03738C30.1525 7.12756 30.9386 7.26088 30.787 8.21365C30.6194 9.31935 31.2698 9.36248 32.044 9.32327C33.8557 9.25662 35.6873 9.14683 37.5429 9.04097H37.523ZM54.2832 8.44891C56.4541 8.33521 58.6209 8.22934 60.7918 8.11171C61.8333 8.0529 62.0408 7.66081 61.4103 6.78253C60.6117 5.67741 59.7171 4.64235 58.7366 3.68893C57.9103 2.82781 56.8065 2.27375 55.6121 2.12057C53.2856 1.84219 50.9511 1.72848 48.6087 1.65006C48.4749 1.62803 48.338 1.63463 48.2071 1.66941C48.0762 1.70419 47.9545 1.76633 47.8503 1.85158C47.7461 1.93684 47.6618 2.04319 47.6033 2.16337C47.5448 2.28356 47.5134 2.41474 47.5113 2.54795C47.2479 4.24962 46.9606 5.94737 46.8568 7.67649C46.805 8.60183 47.1841 8.80963 48.0221 8.75866C50.0972 8.62143 52.1842 8.54693 54.2712 8.44891H54.2832Z" fill="#2B91DB"/>
<path d="M15.0131 25H12.7327C12.1777 24.7155 11.7152 24.2453 11.0557 24.1584C8.69087 22.5541 7.56881 20.4085 8.15197 17.5675C8.40182 16.3436 9.05687 15.2353 10.015 14.4155C10.9731 13.5956 12.1804 13.1103 13.4486 13.0353C14.7782 12.8901 16.1184 13.1957 17.2471 13.9014C18.3757 14.6071 19.225 15.6706 19.6542 16.9155C20.0746 18.0898 20.1126 19.3636 19.7631 20.5601C19.4136 21.7567 18.6939 22.8167 17.7036 23.5933C17.402 23.8146 17.0843 24.0161 16.7746 24.2255C16.0788 24.2413 15.6204 24.7827 15.0131 25Z" fill="#2B91DB"/>
<path d="M58.646 23.9079C56.509 22.254 55.5668 20.145 56.1882 17.4741C56.7456 15.0684 58.8465 13.2087 61.1599 13.0267C64.1149 12.7972 66.3722 14.0554 67.4588 16.5522C67.9864 17.6671 68.1333 18.9209 67.8773 20.1253C67.6214 21.3296 66.9765 22.4195 66.0394 23.2313C65.6665 23.5637 65.2375 23.8407 64.8366 24.1453C64.3032 24.3115 63.8084 24.5804 63.3812 24.9367L60.8592 25L58.646 23.9079Z" fill="#2B91DB"/>
</svg>
