<svg width="22" height="23" viewBox="0 0 24 25" fill="none" xmlns="http://www.w3.org/2000/svg">
<path d="M24 22.5768V9.6244C24 9.38783 23.9458 9.15452 23.8416 8.94293C23.7375 8.73134 23.5863 8.54729 23.4 8.40535L12.9 0.405348C12.6404 0.207523 12.3246 0.100586 12 0.100586C11.6754 0.100586 11.3596 0.207523 11.1 0.405348L0.6 8.40535C0.413706 8.54729 0.262501 8.73134 0.158359 8.94293C0.0542175 9.15452 0 9.38783 0 9.6244V22.5768C0 22.9809 0.158036 23.3685 0.43934 23.6543C0.720645 23.94 1.10218 24.1006 1.5 24.1006H7.5C7.89782 24.1006 8.27935 23.94 8.56066 23.6543C8.84196 23.3685 9 22.9809 9 22.5768V18.0053C9 17.6012 9.15804 17.2136 9.43934 16.9279C9.72065 16.6421 10.1022 16.4815 10.5 16.4815H13.5C13.8978 16.4815 14.2794 16.6421 14.5607 16.9279C14.842 17.2136 15 17.6012 15 18.0053V22.5768C15 22.9809 15.158 23.3685 15.4393 23.6543C15.7206 23.94 16.1022 24.1006 16.5 24.1006H22.5C22.8978 24.1006 23.2794 23.94 23.5607 23.6543C23.842 23.3685 24 22.9809 24 22.5768Z" fill="#C2C2C2"/>
</svg>
