<svg width="11" height="12" viewBox="0 0 11 12" fill="none" xmlns="http://www.w3.org/2000/svg">
<path d="M10.4018 1.04484C10.3426 0.985872 10.2677 0.945045 10.1861 0.927159C10.1044 0.909274 10.0193 0.915072 9.94087 0.943873L0.283297 4.45572C0.200009 4.48731 0.128302 4.54349 0.077701 4.6168C0.0271002 4.69011 0 4.77709 0 4.86616C0 4.95524 0.0271002 5.04221 0.077701 5.11553C0.128302 5.18884 0.200009 5.24502 0.283297 5.27661L4.05414 6.78231L6.83728 3.9904L7.45624 4.60936L4.65993 7.40567L6.17003 11.1765C6.20256 11.2582 6.25886 11.3282 6.33165 11.3775C6.40444 11.4268 6.49036 11.4532 6.57828 11.4531C6.66699 11.4512 6.75307 11.4226 6.82516 11.3709C6.89726 11.3191 6.95199 11.2468 6.98214 11.1633L10.494 1.50577C10.5239 1.4281 10.5311 1.34353 10.5148 1.26192C10.4985 1.18032 10.4593 1.10503 10.4018 1.04484Z" fill="#2B91DB"/>
</svg>
