<svg width="16" height="21" viewBox="0 0 16 21" fill="none" xmlns="http://www.w3.org/2000/svg">
<path d="M7.94231 0.134766C3.5608 0.134766 0 3.69557 0 8.07708C0 10.751 1.54875 12.9881 3.34901 14.5501C3.91821 15.0398 4.911 15.8208 5.79789 16.9725C6.77744 18.2565 7.66433 19.6331 7.94231 20.5597C8.22029 19.6331 9.10718 18.2565 10.0867 16.9725C10.9736 15.8208 11.9664 15.0398 12.5356 14.5501C14.3359 12.9881 15.8846 10.751 15.8846 8.07708C15.8846 3.69557 12.3238 0.134766 7.94231 0.134766ZM7.94231 3.52348C8.5403 3.52348 9.13243 3.64127 9.6849 3.87011C10.2374 4.09895 10.7393 4.43436 11.1622 4.8572C11.585 5.28004 11.9204 5.78203 12.1493 6.33449C12.3781 6.88696 12.4959 7.47909 12.4959 8.07708C12.4959 8.67506 12.3781 9.26719 12.1493 9.81966C11.9204 10.3721 11.585 10.8741 11.1622 11.297C10.7393 11.7198 10.2374 12.0552 9.6849 12.284C9.13243 12.5129 8.5403 12.6307 7.94231 12.6307C6.73462 12.6307 5.5764 12.1509 4.72244 11.297C3.86847 10.443 3.38872 9.28476 3.38872 8.07708C3.38872 6.86939 3.86847 5.71117 4.72244 4.8572C5.5764 4.00324 6.73462 3.52348 7.94231 3.52348Z" fill="#EC3C3B"/>
</svg>
