<svg width="128" height="124" viewBox="0 0 128 124" fill="none" xmlns="http://www.w3.org/2000/svg">
<path d="M97.07 94.4166C98.2035 94.7483 99.36 94.9957 100.53 95.1566C105.512 96.1321 110.421 97.4519 115.22 99.1066C119.082 100.407 122.788 102.131 126.27 104.247C126.693 104.458 127.072 104.746 127.39 105.097C127.166 105.188 126.914 105.188 126.69 105.097C121.6 103.817 116.44 102.817 111.26 101.997C108.06 101.487 104.85 101.057 101.64 100.677C98.99 100.377 96.33 100.087 93.64 99.8666C91.46 99.6966 89.28 99.5066 87.1 99.3666C83.6 99.1466 80.1 98.9366 76.6 98.8666H76.34C75.87 98.8166 75.77 98.7266 75.75 98.1966C75.75 97.8466 75.75 97.4966 75.75 97.1966V58.8966C75.75 44.45 75.75 29.9933 75.75 15.5266C75.6498 14.966 75.6876 14.3894 75.86 13.8466C76.12 13.3866 76.71 13.2466 77.15 12.9766C83.4233 9.2033 89.6933 5.43996 95.96 1.68662C96.25 1.51662 96.52 1.24663 96.91 1.30663C97.12 1.47663 97.04 1.71663 97.05 1.91663C97.05 2.57663 97.05 3.22663 97.05 3.91663V90.9166C97.05 91.4866 97.05 92.0566 96.99 92.6266C96.765 92.8017 96.5031 92.9232 96.2242 92.9821C95.9453 93.041 95.6566 93.0357 95.38 92.9666C90.67 92.5166 85.94 92.4966 81.23 92.3466C80.2733 92.2492 79.3115 92.2091 78.35 92.2266C80.55 92.2266 82.87 92.3166 85.18 92.5466C88.62 92.8866 92.05 93.2866 95.46 93.9166C96.0365 93.9058 96.6011 94.0811 97.07 94.4166Z" fill="#70B1E7"/>
<path d="M73.1 56.2666C73.1 69.7066 73.1 83.1533 73.1 96.6066C73.1 99.0466 73.42 98.7266 71.05 98.6866C65.53 98.5966 60.05 98.6866 54.49 98.8866H53.05C51.72 98.9466 51.75 98.9566 51.75 97.6266V27.8966C51.75 26.4266 51.6 26.6666 52.82 25.8966L71.85 14.5166C72.17 14.3266 72.55 13.9066 72.85 14.0666C73.15 14.2266 73.05 14.8566 73.05 15.2666C73.09 28.9266 73.1067 42.5933 73.1 56.2666Z" fill="#C6C6CD"/>
<path d="M49.21 26.7567C49.2625 26.879 49.3028 27.0063 49.33 27.1367C49.33 27.5367 49.33 27.9266 49.33 28.3266V97.4466C49.33 99.3966 49.54 99.0666 47.68 99.1966C43.79 99.4666 39.9 99.7367 36.02 100.117C31.45 100.557 26.89 101.117 22.34 101.807C15.149 102.86 8.0364 104.394 1.05 106.397C0.720003 106.497 0.38 106.577 0 106.677C0 106.287 0.330009 106.167 0.540009 106.007C2.73323 104.329 5.10815 102.903 7.62001 101.757C12.1518 99.649 16.8728 97.9749 21.72 96.7566C23.58 96.2766 25.47 95.8667 27.34 95.4267C27.93 95.2867 27.97 95.2466 27.98 94.6366C27.98 93.4066 27.98 92.1867 27.98 90.9566C27.98 74.29 27.98 57.6 27.98 40.8867C27.98 39.0067 27.74 39.4467 29.27 38.5267C35.4967 34.78 41.7333 31.0433 47.98 27.3167C48.3442 27.0424 48.764 26.8512 49.21 26.7567Z" fill="#7C919D"/>
<path d="M84.76 3.81664L81.16 6.00664C79.02 7.28664 76.87 8.54665 74.75 9.85665C74.4589 10.0501 74.1316 10.1826 73.7878 10.2462C73.4441 10.3098 73.0911 10.3031 72.75 10.2266C68.5669 9.45444 64.3012 9.22922 60.06 9.55664C54.1474 9.93789 48.3469 11.3491 42.92 13.7266C32.804 18.0906 24.3205 25.5314 18.6747 34.9919C13.0288 44.4525 10.5079 55.4516 11.47 66.4266C12.1959 75.3925 15.2575 84.0118 20.35 91.4266L20.94 92.2966C21.22 92.7266 21.16 92.9267 20.68 93.0566C17.88 93.7766 15.12 94.6266 12.39 95.5866C12.3226 95.6202 12.2492 95.6399 12.174 95.6445C12.0989 95.649 12.0236 95.6384 11.9526 95.6132C11.8817 95.588 11.8165 95.5487 11.7611 95.4978C11.7057 95.4468 11.6611 95.3852 11.63 95.3167C11.21 94.6367 10.78 93.9767 10.39 93.3167C4.05713 82.5607 1.13196 70.1382 2 57.6866C2.45065 50.5967 4.14302 43.6411 7 37.1366C11.1004 27.7446 17.4678 19.5171 25.5312 13.1921C33.5945 6.86711 43.1017 2.64232 53.2 0.896641C55 0.576641 56.83 0.376648 58.66 0.216648C61.1939 -0.00156048 63.7392 -0.0550099 66.28 0.0566446C72.4169 0.293423 78.4839 1.44616 84.28 3.47664C84.4508 3.57398 84.6115 3.68786 84.76 3.81664Z" fill="#C6C6CD"/>
<path d="M106.66 92.3767C106.66 91.9867 106.93 91.7566 107.11 91.4766C111.832 84.5806 114.829 76.6518 115.85 68.3567C116.114 66.317 116.255 64.2633 116.27 62.2067C116.351 50.0462 112.189 38.2382 104.5 28.8167C103.562 27.6527 102.56 26.541 101.5 25.4867C101.355 25.362 101.236 25.209 101.152 25.0371C101.068 24.8652 101.02 24.6779 101.01 24.4867C101.01 20.6767 101.01 16.8667 101.01 13.0567C101.01 12.9867 101.08 12.9167 101.13 12.8367C101.48 12.7567 101.68 13.0267 101.91 13.2067C105.808 16.2665 109.326 19.7814 112.39 23.6767C118.005 30.7826 121.977 39.0436 124.02 47.8667C125.447 54.0924 125.919 60.499 125.42 66.8667C124.983 72.8984 123.635 78.8291 121.42 84.4567C120.093 87.8448 118.467 91.1078 116.56 94.2067C116.45 94.3867 116.34 94.5867 116.22 94.7667C116.15 94.9031 116.028 95.006 115.882 95.0529C115.735 95.0997 115.577 95.0867 115.44 95.0167C112.71 94.0867 109.93 93.3067 107.13 92.5967C106.95 92.5667 106.77 92.5567 106.66 92.3767Z" fill="#C6C6CD"/>
<path d="M107.48 105.517C107.48 105.857 107.16 106.027 106.94 106.237C98.6563 114.332 88.2589 119.929 76.94 122.387C73.9456 123.051 70.9023 123.472 67.84 123.647C66.62 123.707 65.4 123.817 64.17 123.817C56.0476 123.864 47.995 122.314 40.47 119.257C33.7097 116.521 27.4947 112.596 22.12 107.667C21.7 107.287 21.29 106.897 20.88 106.507C20.78 106.417 20.69 106.287 20.78 106.157C20.8632 106.071 20.9721 106.015 21.09 105.997L28.76 104.897C29.76 104.757 30.76 104.667 31.76 104.497C32.1201 104.421 32.4923 104.424 32.8513 104.505C33.2102 104.586 33.5475 104.743 33.84 104.967C38.3199 108.134 43.2846 110.552 48.54 112.127C52.0632 113.182 55.6856 113.873 59.35 114.187C61.7039 114.398 64.0696 114.445 66.43 114.327C76.5186 113.832 86.2461 110.417 94.43 104.497C94.6998 104.286 95.0115 104.135 95.3443 104.054C95.6771 103.973 96.0234 103.963 96.36 104.027C98.27 104.297 100.19 104.437 102.1 104.657C103.67 104.837 105.23 105.047 106.79 105.247C107.041 105.268 107.281 105.362 107.48 105.517Z" fill="#C6C6CD"/>
</svg>
