<svg width="53" height="30" viewBox="0 0 53 30" fill="none" xmlns="http://www.w3.org/2000/svg">
<path d="M34.2543 0.074533C37.304 -0.0931662 40.6669 0.074533 44.0299 0.074533C44.3948 0.074533 44.7279 0.140833 44.8469 0.491831C45.64 2.90202 47.3492 4.78181 48.5985 6.9541C50.5417 10.3081 50.859 13.9975 51.1366 17.7063C51.196 18.5409 51.2555 19.2663 52.3501 19.3404C52.4468 19.3433 52.5417 19.3668 52.6283 19.4091C52.7149 19.4515 52.7912 19.5118 52.8519 19.5859C52.9125 19.66 52.9562 19.7462 52.9798 19.8385C53.0034 19.9307 53.0064 20.0269 52.9886 20.1204C52.9251 21.7038 53.0877 23.3106 52.4453 24.8355C52.3624 25.0905 52.227 25.326 52.0476 25.5272C51.8681 25.7285 51.6485 25.8913 51.4023 26.0055C50.4584 26.3955 49.8636 26.0523 49.8794 25.0305C49.9032 23.5992 49.9627 22.1874 49.4115 20.8068C48.0671 17.4372 44.7239 15.4015 41.353 15.9553C37.3873 16.6105 34.6866 19.5042 34.5755 23.2716C34.5517 24.0828 34.5993 24.9018 34.6548 25.7169C34.7104 26.532 34.3495 26.8869 33.592 26.8869C32.7195 26.9298 31.851 26.9766 30.9786 26.9766C27.1159 26.9766 23.2533 26.9766 19.3906 27C18.4587 27 18.0422 26.7699 18.1691 25.7325C18.3674 24.153 18.4507 22.5579 17.8638 21.0096C16.563 17.5659 13.0612 15.382 9.68637 15.9397C5.7206 16.5754 3.05561 19.512 2.94457 23.412C2.91491 23.8197 2.91491 24.2289 2.94457 24.6366C3.04768 25.5843 2.61939 25.9626 1.67554 26.0133C0.109062 26.0952 0.136791 26.1303 0.15662 24.5937C0.15662 23.4939 -0.176483 22.3083 0.128881 21.3099C0.711849 19.4106 0.212156 17.3514 1.16394 15.5497C2.11572 13.7479 3.61875 12.4765 5.20506 11.2831C8.63148 8.70519 11.8913 5.9128 15.3971 3.43242C18.4452 1.17926 22.1777 0.00430452 25.9897 0.0979326C28.6229 0.125233 31.2839 0.074533 34.2543 0.074533ZM27.0207 11.1193V10.6825C29.9713 10.6825 32.9178 10.7215 35.8644 10.6825C37.4983 10.6513 37.7442 10.3354 37.538 8.73249C37.2877 6.70227 36.7428 4.7178 35.9199 2.83962C35.8209 2.53363 35.6199 2.26941 35.3493 2.08966C35.0787 1.90991 34.7544 1.82513 34.4288 1.84902C30.3559 1.80222 26.2871 1.70862 22.2301 2.18052C21.1273 2.30508 20.0819 2.73062 19.2121 3.40902C17.4513 4.74671 16.103 6.4627 14.6039 8.03829C14.4453 8.20209 14.1003 8.35809 14.2668 8.68569C14.4334 9.01329 14.707 8.77539 14.9212 8.82219C15.8333 9.01719 17.0627 8.92359 17.1856 10.1599C17.2729 11.0101 17.5426 11.1349 18.304 11.1232C21.2069 11.0959 24.1138 11.1193 27.0207 11.1193ZM44.3313 10.3198H44.9539L46.3181 10.2613C47.6665 10.2028 47.8093 9.96878 47.2898 8.70129C46.509 6.80781 45.3553 5.08479 43.8951 3.63132C42.634 2.36382 41.1547 1.59942 39.2512 1.77102C38.4778 1.84122 38.1764 2.02452 38.4223 2.79282C38.8625 4.19291 39.2393 5.6086 39.7191 6.9931C41.0397 10.819 40.6313 10.1794 44.3313 10.3198Z" fill="#2B91DB"/>
<path d="M40.8059 29.9065C37.0372 28.164 36.5523 24.6429 37.2943 22.089C37.6459 20.9046 38.3325 19.8715 39.2561 19.1372C40.1797 18.4029 41.2929 18.005 42.4368 18.0004C43.6176 17.9862 44.7712 18.3869 45.7261 19.1429C46.681 19.899 47.3863 20.97 47.7372 22.1969C48.0921 23.3987 48.0874 24.6921 47.7237 25.8908C47.36 27.0896 46.6561 28.1318 45.7132 28.8674C45.2247 29.2671 44.67 29.5668 44.1485 29.9145C43.0367 30.0311 41.9171 30.0284 40.8059 29.9065Z" fill="#2B91DB"/>
<path d="M9.1002 29.9149C6.97488 28.6089 5.15089 27.092 5.01831 24.3407C4.90971 22.9771 5.28675 21.6189 6.08389 20.5023C6.88103 19.3857 8.04784 18.5813 9.38144 18.2289C12.1295 17.4764 14.9217 18.6271 16.1712 20.9802C17.6618 23.8031 17.1194 26.7137 14.7249 28.6289C14.2347 29.027 13.6803 29.3177 13.154 29.6601C11.8313 29.999 10.4555 30.0855 9.1002 29.9149Z" fill="#2B91DB"/>
</svg>
