<svg width="73" height="34" viewBox="0 0 73 34" fill="none" xmlns="http://www.w3.org/2000/svg">
<path d="M25.6165 10.3738C25.6165 13.2018 25.6165 16.0272 25.6165 18.85C25.5987 19.0947 25.5987 19.3404 25.6165 19.5851C25.6336 19.75 25.7153 19.9019 25.8441 20.0085C25.973 20.1151 26.1389 20.1679 26.3067 20.1559C26.3895 20.1685 26.4741 20.1641 26.5551 20.1429C26.6361 20.1218 26.7118 20.0843 26.7774 20.0329C26.843 19.9815 26.8971 19.9172 26.9362 19.8442C26.9754 19.7711 26.9987 19.6909 27.0049 19.6085C27.0287 19.4482 27.0287 19.284 27.0406 19.1198C27.2786 16.383 27.2786 16.4143 30.095 16.4143C43.2608 16.4143 56.4305 16.3791 69.5963 16.3869C73.4758 16.3869 72.968 16.0546 72.9879 19.7415C72.9879 20.8909 72.9046 22.0365 72.9323 23.182C72.9522 24.0382 72.5356 24.3276 71.7423 24.3549C70.9489 24.3823 70.0405 24.0148 69.4416 24.527C68.8426 25.0391 69.2075 26.0048 69.1242 26.7633C69.0409 27.5218 68.7593 27.8932 67.9619 27.8267C67.7555 27.8044 67.5467 27.8137 67.3431 27.8541C65.3399 28.2998 64.2609 27.6352 63.4755 25.6256C62.4719 23.0452 60.1751 21.7628 57.3429 21.8175C54.6137 21.8683 52.2614 22.9904 51.2975 25.5865C50.5041 27.729 49.2387 28.0222 47.1958 27.9988C38.4332 27.901 29.6666 27.9558 20.904 27.9988C19.7457 27.9988 19.1308 27.7681 18.8016 26.5326C18.4483 25.2143 17.674 24.0429 16.5932 23.1917C15.5124 22.3405 14.1824 21.8546 12.7998 21.8058C9.78109 21.6572 6.97658 23.268 5.97695 25.9814C5.58027 27.0878 4.99715 27.3537 3.95785 27.2168C3.46068 27.1731 2.9613 27.1587 2.46238 27.1738C0.292549 27.1347 0.102136 26.9783 0.0624683 24.8827C0.0624683 23.9483 -0.306438 22.9279 0.748727 22.2085C0.887564 22.1146 0.883592 21.751 0.879625 21.5126C0.800289 14.6627 3.14069 8.54796 6.70683 2.79286C7.83737 0.967026 9.29715 -0.0416858 11.5582 0.00132099C15.5845 0.0834249 19.6148 0.00131526 23.645 0.0443221C25.3269 0.0443221 25.5649 0.310183 25.5768 1.99918C25.5768 4.78289 25.5768 7.56661 25.5768 10.3503L25.6165 10.3738ZM14.1128 11.402C15.8582 11.402 17.5996 11.402 19.341 11.402C20.1622 11.402 20.5311 11.0854 20.5311 10.2291C20.4716 7.73473 20.4636 5.24033 20.4597 2.74985C20.4597 1.96791 20.2058 1.57693 19.3133 1.57693C16.6992 1.62776 14.0851 1.6043 11.4749 1.62776C11.0004 1.62266 10.5325 1.73751 10.1159 1.96132C9.69919 2.18513 9.34766 2.51045 9.09484 2.90623C8.02134 4.44941 7.1096 6.09602 6.37363 7.82074C5.86588 8.99366 5.94521 9.33772 7.16698 9.412C7.90481 9.45501 8.25785 9.73259 8.16265 10.4481C8.05555 11.23 8.44826 11.4138 9.16625 11.3981C10.8125 11.3786 12.4706 11.402 14.1287 11.402H14.1128Z" fill="#2B91DB"/>
<path d="M54.3344 33.0716C52.2989 31.5487 51.4847 29.6734 52.3315 27.3358C52.6934 26.384 53.3693 25.5545 54.2685 24.9584C55.1678 24.3622 56.2475 24.0279 57.3634 24C58.5209 24.0017 59.6504 24.3211 60.6017 24.9157C61.5529 25.5103 62.2808 26.3519 62.6884 27.3285C63.0621 28.2771 63.1006 29.3068 62.7988 30.2761C62.4971 31.2453 61.8697 32.1065 61.0029 32.7413C60.775 32.9138 60.5348 33.0753 60.3027 33.2404C58.2712 34.3964 56.2886 34.1468 54.3344 33.0716Z" fill="#2B91DB"/>
<path d="M10.7492 33.4709C8.27373 31.6888 7.43383 29.3923 8.37687 27.0334C8.74628 26.0771 9.41671 25.2661 10.2875 24.7222C11.1583 24.1782 12.1825 23.9307 13.2063 24.0167C14.2652 24.0746 15.28 24.4593 16.1102 25.1176C16.9404 25.7758 17.545 26.6751 17.8404 27.6911C18.3746 29.8039 17.5531 31.7329 15.5934 33.0079L13.7736 34L11.4565 33.9522C11.407 33.8062 11.3113 33.6803 11.1836 33.5935C11.056 33.5066 10.9035 33.4636 10.7492 33.4709Z" fill="#2B91DB"/>
</svg>
