<svg width="22" height="22" viewBox="0 0 22 22" fill="none" xmlns="http://www.w3.org/2000/svg">
<path d="M9.86282 21.9544C10.2784 21.9448 10.6772 21.7886 10.9887 21.5133C11.3002 21.238 11.5043 20.8615 11.5649 20.4502H8.09473C8.15705 20.8726 8.37071 21.258 8.69594 21.5347C9.02118 21.8114 9.43585 21.9606 9.86282 21.9544Z" fill="white"/>
<path d="M19.4358 17.6991C18.7996 17.132 18.2426 16.4818 17.7798 15.7661C17.2746 14.7782 16.9718 13.6993 16.8892 12.5928V9.33371C16.8865 8.93784 16.8512 8.54286 16.7836 8.15279C16.2644 8.04899 15.7653 7.86184 15.3058 7.59861C15.481 8.16258 15.57 8.74977 15.5697 9.34031V12.5994C15.6506 13.9492 16.0219 15.2657 16.6583 16.4588C17.1138 17.1806 17.6542 17.8451 18.268 18.438H1.37225C1.98607 17.8451 2.52652 17.1806 2.982 16.4588C3.61839 15.2657 3.9897 13.9492 4.07056 12.5994V9.33371C4.06709 8.57019 4.21426 7.81349 4.50364 7.10692C4.79302 6.40036 5.21893 5.75782 5.75699 5.21609C6.29504 4.67436 6.93467 4.24408 7.63924 3.94989C8.34382 3.65571 9.0995 3.50339 9.86303 3.50166C10.9805 3.50255 12.0728 3.83301 13.0034 4.45168C12.9008 4.07496 12.8432 3.68741 12.8318 3.29714V2.88151C12.143 2.54264 11.4029 2.31974 10.6415 2.22178V1.39051C10.6415 1.15692 10.5487 0.932902 10.3836 0.76773C10.2184 0.602558 9.99436 0.509766 9.76077 0.509766C9.52718 0.509766 9.30316 0.602558 9.13799 0.76773C8.97282 0.932902 8.88003 1.15692 8.88003 1.39051V2.25476C7.17509 2.49527 5.61472 3.34448 4.487 4.6456C3.35928 5.94672 2.74036 7.6119 2.74449 9.33371V12.5928C2.66187 13.6993 2.35906 14.7782 1.85385 15.7661C1.39922 16.4802 0.851186 17.1303 0.22431 17.6991C0.153937 17.761 0.097536 17.8371 0.0588598 17.9224C0.0201836 18.0077 0.000118618 18.1003 0 18.1939V19.0912C0 19.2662 0.0695075 19.434 0.193232 19.5577C0.316956 19.6814 0.484762 19.7509 0.659735 19.7509H19.0004C19.1753 19.7509 19.3431 19.6814 19.4669 19.5577C19.5906 19.434 19.6601 19.2662 19.6601 19.0912V18.1939C19.66 18.1003 19.6399 18.0077 19.6012 17.9224C19.5625 17.8371 19.5061 17.761 19.4358 17.6991Z" fill="white"/>
<path d="M17.7811 6.59734C19.6029 6.59734 21.0798 5.12048 21.0798 3.29867C21.0798 1.47687 19.6029 0 17.7811 0C15.9593 0 14.4824 1.47687 14.4824 3.29867C14.4824 5.12048 15.9593 6.59734 17.7811 6.59734Z" fill="#EC3C3B"/>
</svg>
