<svg width="60" height="60" viewBox="0 0 60 60" fill="none" xmlns="http://www.w3.org/2000/svg">
<path d="M31.375 44H27.875C21.2975 44 18.0087 44 15.8131 42.2659C15.4619 41.9886 15.1371 41.683 14.8424 41.3524C13 39.2859 13 36.1906 13 30C13 23.8094 13 20.7141 14.8424 18.6476C15.1371 18.3171 15.4619 18.0114 15.8131 17.734C18.0087 16 21.2975 16 27.875 16H33.125C39.7026 16 42.9913 16 45.1869 17.734C45.5381 18.0114 45.8629 18.3171 46.1576 18.6476C47.8175 20.5095 47.982 23.2065 47.9983 28.25" stroke="#141B34" stroke-width="1.5" stroke-linecap="round" stroke-linejoin="round"/>
<path d="M13 24.75H48" stroke="#141B34" stroke-width="1.5" stroke-linejoin="round"/>
<path d="M48 33.5L37.5 44M48 44L37.5 33.5" stroke="#141B34" stroke-width="1.5" stroke-linecap="round"/>
<path d="M28.2714 31.3243C28.0983 30.1231 26.5688 28.1824 23.8185 28.1823C20.6229 28.1823 19.2782 29.7782 19.0054 30.5762C18.5797 31.6436 18.6649 33.838 22.4106 34.0773C27.0928 34.3765 28.9685 34.8749 28.7299 37.4588C28.4912 40.0426 25.8812 40.601 23.8185 40.541C21.7558 40.4813 18.381 39.6268 18.25 37.3286M23.4912 26.5V28.188M23.4912 40.5255V42.25" stroke="#141B34" stroke-width="1.5" stroke-linecap="round"/>
<circle cx="30" cy="30" r="30" fill="#BA2CFD" fill-opacity="0.15"/>
</svg>
