<svg width="82" height="31" viewBox="0 0 82 31" fill="none" xmlns="http://www.w3.org/2000/svg">
<path d="M79.143 9.55687C80.2853 9.64108 80.6252 10.4671 80.7517 11.4215C81.0007 13.3022 80.9137 15.195 80.9137 17.0837C80.9137 17.7854 80.9137 18.411 81.6094 18.828C82.0719 19.1087 82.0047 19.63 81.9849 20.0832C81.9493 20.7969 81.9414 21.5107 81.898 22.2205C81.7833 23.9729 81.5224 24.3017 79.8426 24.6586C77.8662 25.0796 75.8899 24.9353 73.9136 24.9994C73.1468 25.0195 73.0914 24.4942 73.0203 23.9167C72.7634 21.7714 71.9965 19.8706 70.3759 18.3789C69.3217 17.3517 68.0075 16.641 66.5791 16.326C65.1508 16.011 63.6643 16.1039 62.2848 16.5944C59.3085 17.5448 57.4191 19.6822 56.7709 22.838C56.348 24.9072 56.3756 24.9192 54.3202 24.9152C44.3068 24.9152 34.2855 24.9085 24.2563 24.8952C21.4657 24.8952 21.5171 24.8671 20.7424 22.2526C19.7977 19.0646 17.766 16.9714 14.4537 16.3498C11.1414 15.7283 8.54845 16.7949 6.35472 19.3132C5.29541 20.5162 4.92782 21.9799 4.57998 23.4596C4.42583 24.1293 4.25586 24.7348 3.46533 24.7187C2.47321 24.6987 1.27556 25.0756 0.69847 23.8887C0.0107069 22.5253 -0.309462 20.5644 0.398064 19.6421C1.97913 17.601 1.10164 15.5037 1.31904 13.4546C1.49296 11.8105 2.0305 11.1128 3.67085 10.816C8.61563 9.92579 13.509 8.6867 18.5487 8.36991C19.0625 8.33783 19.3392 7.9689 19.6831 7.67216C22.3511 5.55086 24.8611 3.22907 27.6872 1.30827C28.8899 0.473318 30.3171 0.0350145 31.7743 0.0531336C35.9127 0.0812037 40.0551 0.0812017 44.1935 0.00100142C45.5137 -0.0270687 46.071 0.534337 46.2608 1.76541C46.5651 3.77042 46.9604 5.73533 47.2489 7.7283C47.4031 8.81903 47.8339 9.33231 49.0118 9.30424C56.257 9.22805 63.5023 9.22003 70.7514 9.19597C73.2772 9.19597 75.8029 9.19597 78.3287 9.19597C78.4156 9.71326 78.7912 9.61301 79.143 9.55687ZM31.4936 9.38043C33.2723 9.38043 35.051 9.35236 36.8297 9.38043C37.6203 9.38043 37.9523 9.02755 38.0471 8.2897C38.2962 6.37693 38.5491 4.46415 38.8179 2.55539C38.9167 1.83759 38.7784 1.4807 37.9286 1.51278C35.9878 1.58095 34.0391 1.51278 32.0984 1.56491C30.5061 1.59842 28.9726 2.18112 27.7505 3.21704C26.3789 4.35989 25.0666 5.58294 23.7346 6.76991C23.4895 6.99046 23.1061 7.2471 23.3393 7.57191C23.38 7.6512 23.4359 7.72141 23.5037 7.77843C23.5716 7.83544 23.65 7.8781 23.7344 7.90389C23.8187 7.92967 23.9073 7.93807 23.9949 7.92857C24.0825 7.91908 24.1674 7.89189 24.2445 7.8486C24.7464 7.608 25.3947 7.81252 25.3789 8.53833C25.3789 9.38444 25.8295 9.36439 26.4026 9.34033C28.1022 9.37241 29.7979 9.38043 31.4936 9.38043ZM43.7983 6.02405C43.7192 4.96941 43.6243 3.75438 43.5413 2.54336C43.49 1.86566 43.2686 1.42055 42.4741 1.53283C41.7824 1.63308 40.8456 1.29624 40.7152 2.41102C40.4741 4.45212 40.3199 6.50124 40.1104 8.54634C40.0749 8.94735 40.1104 9.34835 40.6203 9.39246C41.6441 9.45662 42.7903 9.74935 43.652 9.208C44.2844 8.807 43.7469 7.80049 43.7943 7.06665C43.7983 6.77392 43.7983 6.48119 43.7983 6.02405Z" fill="#2B91DB"/>
<path d="M62.8871 30.5403C61.9757 29.8045 60.9312 29.2276 60.2388 28.2169C59.3566 27.011 58.9229 25.5401 59.0113 24.0537C59.0997 22.5673 59.7048 21.1569 60.7239 20.0618C62.5507 18.0095 66.04 17.3822 68.5122 18.6678C70.9844 19.9534 72.5726 23.2836 71.8059 26.0252C71.2465 28.031 69.8735 29.4676 68.0076 30.428C66.7206 30.8152 65.4415 31.3147 64.0958 30.7378C63.7247 30.5455 63.301 30.4763 62.8871 30.5403Z" fill="#2B91DB"/>
<path d="M11.0101 30.4919C6.63273 28.2207 6.42878 24.5262 7.63294 21.7223C8.13351 20.601 8.9555 19.6504 9.99671 18.9887C11.0379 18.327 12.2524 17.9834 13.489 18.0006C14.8336 17.9846 16.1491 18.3894 17.2484 19.1575C18.3476 19.9255 19.1746 21.0176 19.6118 22.2784C20.0384 23.4293 20.1153 24.6789 19.833 25.8726C19.5506 27.0664 18.9214 28.1518 18.0232 28.9946C17.4238 29.4838 16.7993 29.942 16.1523 30.3674C15.357 30.7613 14.4839 30.9767 13.5952 30.9982C12.7064 31.0197 11.8238 30.8468 11.0101 30.4919Z" fill="#2B91DB"/>
</svg>
