<svg width="19" height="23" viewBox="0 0 19 23" fill="none" xmlns="http://www.w3.org/2000/svg">
<path d="M18.8332 18.5354C18.8332 19.5951 18.5294 20.5042 17.9217 21.2625C17.3141 22.0208 16.5825 22.4 15.7269 22.4H3.27275C2.4172 22.4 1.6856 22.0208 1.07796 21.2625C0.470323 20.5042 0.166504 19.5951 0.166504 18.5354C0.166504 17.709 0.207823 16.9288 0.290462 16.1948C0.373101 15.4608 0.526226 14.7219 0.749837 13.9781C0.973448 13.2344 1.25782 12.5976 1.60296 12.0677C1.9481 11.5378 2.40505 11.1052 2.9738 10.7698C3.54255 10.4344 4.19636 10.2667 4.93525 10.2667C6.20886 11.5111 7.73039 12.1333 9.49984 12.1333C11.2693 12.1333 12.7908 11.5111 14.0644 10.2667C14.8033 10.2667 15.4571 10.4344 16.0259 10.7698C16.5946 11.1052 17.0516 11.5378 17.3967 12.0677C17.7418 12.5976 18.0262 13.2344 18.2498 13.9781C18.4734 14.7219 18.6266 15.4608 18.7092 16.1948C18.7918 16.9288 18.8332 17.709 18.8332 18.5354ZM15.0998 5.6C15.0998 7.14583 14.553 8.46562 13.4592 9.55937C12.3655 10.6531 11.0457 11.2 9.49984 11.2C7.954 11.2 6.63421 10.6531 5.54046 9.55937C4.44671 8.46562 3.89984 7.14583 3.89984 5.6C3.89984 4.05417 4.44671 2.73438 5.54046 1.64062C6.63421 0.546875 7.954 0 9.49984 0C11.0457 0 12.3655 0.546875 13.4592 1.64062C14.553 2.73438 15.0998 4.05417 15.0998 5.6Z" fill="#C2C2C2"/>
</svg>
