<svg width="60" height="60" viewBox="0 0 60 60" fill="none" xmlns="http://www.w3.org/2000/svg">
<path d="M60 30C60 46.5685 46.5685 60 30 60C13.4315 60 0 46.5685 0 30C0 13.4315 13.4315 0 30 0C46.5685 0 60 13.4315 60 30Z" fill="#2CFDA5" fill-opacity="0.15"/>
<path d="M45.9093 31.275C47.5109 28.9791 48.4501 26.1866 48.4501 23.175C48.4501 15.3464 42.1037 9 34.2751 9C26.4464 9 20.1001 15.3464 20.1001 23.175C20.1001 25.349 20.5895 27.4087 21.4642 29.25" stroke="#141B34" stroke-width="1.5" stroke-linecap="round" stroke-linejoin="round"/>
<path d="M31.1108 28.5751V17.775M34.2749 17.775V15.075M34.2749 31.275V28.5751M31.1108 23.175H37.439M37.439 23.175C38.4875 23.175 39.3374 24.0816 39.3374 25.2V26.5501C39.3374 27.6685 38.4875 28.5751 37.439 28.5751H29.2124M37.439 23.175C38.4875 23.175 39.3374 22.2684 39.3374 21.15V19.8C39.3374 18.6816 38.4875 17.775 37.439 17.775H29.2124" stroke="#141B34" stroke-width="1.5" stroke-linecap="round" stroke-linejoin="round"/>
<path d="M12 33.3H16.8495C17.4452 33.3 18.0326 33.4343 18.5654 33.692L22.7004 35.6927C23.2332 35.9505 23.8206 36.0846 24.4163 36.0846H26.5276C28.5696 36.0846 30.225 37.6866 30.225 39.6626C30.225 39.7423 30.1703 39.8126 30.0909 39.8345L24.9456 41.2572C24.0226 41.5124 23.0342 41.4235 22.1756 41.008L17.7553 38.8694M30.225 38.3625L39.5254 35.505C41.1742 34.9913 42.9564 35.6004 43.9891 37.0307C44.7359 38.0646 44.4318 39.5455 43.344 40.1733L28.1249 48.9543C27.1569 49.5128 26.0149 49.649 24.9502 49.3331L12 45.4903" stroke="#141B34" stroke-width="1.5" stroke-linecap="round" stroke-linejoin="round"/>
</svg>
