<svg width="71" height="24" viewBox="0 0 71 24" fill="none" xmlns="http://www.w3.org/2000/svg">
<path d="M34.6443 20.9747C30.3418 20.9747 26.0434 20.9747 21.741 20.9747C20.1226 20.9747 20.1226 20.9316 20.2845 19.3193C20.6792 15.2711 19.2819 12.2231 16.3373 10.7246C15.197 10.1516 13.9316 9.86873 12.6543 9.9012C11.3771 9.93366 10.1278 10.2805 9.01855 10.9106C7.90927 11.5407 6.97462 12.4344 6.29826 13.5117C5.6219 14.589 5.22497 15.8162 5.14306 17.0834C5.11543 17.5345 5.12333 17.9856 5.11938 18.4367C5.0957 20.1196 5.06414 20.1509 3.41027 20.1509C0.813027 20.1509 0.319615 19.6998 0.0393649 17.1461C-0.138258 15.577 0.303839 14.2551 0.990648 12.7605C2.53005 9.39086 5.24965 8.29641 8.51397 7.76292C12.6614 7.03123 16.862 6.63765 21.0739 6.5861C24.6264 6.5861 27.6459 5.43674 30.5787 3.65973C32.8783 2.28133 35.3131 1.13916 37.8454 0.250869C38.2915 0.0900363 38.8757 -0.255166 39.1677 0.317555C39.523 1.02757 38.773 1.23156 38.3349 1.42377C36.0929 2.39269 34.1785 3.93433 31.976 4.95424C31.755 5.06015 31.5102 5.19745 31.5378 5.48773C31.5694 5.85255 31.9128 5.93885 32.1773 5.93885C33.6141 5.93885 33.9772 6.6214 33.6377 7.90022C33.4404 8.66123 34.068 8.52393 34.4943 8.53178C36.8073 8.57624 39.1204 8.51478 41.4334 8.34741C42.7445 8.20614 44.0619 8.13152 45.3806 8.12382C46.8963 8.16697 47.4726 7.61386 47.7884 6.14283C47.895 5.65641 47.8437 4.966 48.6528 5.05623C49.3002 5.14253 49.4423 5.64464 49.4423 6.23305C49.462 7.26473 50.0225 7.66093 50.7764 7.0176C52.2882 5.73879 53.9973 5.93492 55.7222 6.03299C59.697 6.25267 63.6166 6.7587 67.4058 8.06497C67.8623 8.1948 68.2689 8.45796 68.5729 8.8203C68.877 9.18263 69.0645 9.62742 69.111 10.097C69.2268 10.7456 69.3033 11.4006 69.34 12.0583C69.3834 12.9409 69.5531 13.6274 70.3504 14.2747C71.7004 15.3613 70.7807 18.982 69.1071 19.4527C68.2238 19.6694 67.329 19.8371 66.427 19.9548C65.6809 20.0764 65.3612 19.7116 65.3612 18.9859C65.3612 18.3269 65.3612 17.6678 65.3099 17.0245C65.1992 15.4055 64.5796 13.8619 63.5385 12.6118C62.4973 11.3618 61.0873 10.4683 59.5076 10.0577C57.9038 9.69622 56.2259 9.84883 54.7148 10.4937C53.2037 11.1385 51.9369 12.2424 51.0961 13.647C50.0975 15.2671 49.912 16.9931 50.0225 18.8211C50.137 20.5393 49.7975 20.9669 48.0489 20.9826C43.5846 21.0218 39.1204 20.9826 34.6561 20.9826L34.6443 20.9747Z" fill="#2B91DB"/>
<path d="M57.4239 24C53.3368 23.4727 51.12 19.7374 52.3292 15.9701C53.1353 13.4333 55.6101 11.8513 58.4033 12.0111C59.7422 12.0791 61.0167 12.6013 62.0133 13.4902C63.0098 14.379 63.6678 15.5804 63.8768 16.8929C64.1499 18.1946 63.9658 19.5496 63.3551 20.7333C62.7445 21.917 61.7439 22.8582 60.5193 23.4008C60.0599 23.6125 59.5721 23.7483 59.0965 23.9161C58.5387 23.8378 57.9709 23.8663 57.4239 24Z" fill="#2B91DB"/>
<path d="M12.5877 24C8.06461 23.4813 6.44434 19.611 7.16402 16.6186C7.75504 14.1767 9.55221 12.3972 11.9525 12.07C14.7267 11.6909 17.0706 12.868 18.2768 15.2021C18.8696 16.2725 19.107 17.5011 18.9555 18.7132C18.8039 19.9253 18.2709 21.059 17.4325 21.9531C16.5335 22.902 15.3865 23.5844 14.1196 23.9242C13.611 23.8173 13.0831 23.8434 12.5877 24Z" fill="#2B91DB"/>
</svg>
