<svg width="76" height="24" viewBox="0 0 76 24" fill="none" xmlns="http://www.w3.org/2000/svg">
<path d="M36.3736 21.9949C31.3173 21.9949 26.2623 21.9949 21.2085 21.9949C19.5302 21.9949 19.4812 21.9345 19.5792 20.2524C19.6773 18.5703 19.6207 16.8581 18.8023 15.2929C17.2409 12.2757 14.235 10.8275 10.7653 11.5214C9.22788 11.8428 7.83604 12.6538 6.79843 13.8328C5.76082 15.0118 5.13332 16.4954 5.00997 18.0612C5.03247 18.4149 5.01858 18.7701 4.96849 19.121C4.77614 19.7772 5.63603 20.9049 4.31978 21.0369C2.26055 21.2481 0.857557 21.1387 0.454008 19.6754C-0.0362853 17.9028 -0.371937 16.1264 0.770823 14.4443C0.794782 14.4121 0.813831 14.3765 0.827381 14.3387C1.58168 11.0161 3.98789 9.86576 7.05411 9.29626C11.0519 8.54197 15.0232 7.6783 19.07 7.2408C20.4777 7.08108 21.8401 6.64533 23.0791 5.9585C25.8889 4.44991 28.7364 2.96771 31.6668 1.70804C35.0612 0.259787 38.6327 0.0297252 42.227 0.00709627C45.6213 -0.0155326 49.0156 0.00709725 52.41 0.206986C55.6648 0.406875 58.6216 1.77592 61.3748 3.39389C64.2356 5.05712 67.3512 6.23709 70.5961 6.88628C74.1413 7.64058 74.3374 7.97247 74.5599 11.6233C74.6127 12.4907 74.6504 13.3582 74.707 14.2256C74.7334 14.6555 74.7334 15.1157 75.1294 15.4061C75.6159 15.7832 75.6084 16.2622 75.5858 16.7902C75.4123 20.3128 75.1256 20.6183 71.5918 20.9766C70.8374 21.052 70.0832 21.0331 69.3477 21.1199C68.3898 21.2292 68.0918 20.8332 68.1635 19.9017C68.3332 17.7104 67.956 15.6512 66.4965 13.9012C65.5725 12.7512 64.3146 11.9161 62.8961 11.5108C61.4777 11.1055 59.9684 11.1501 58.5764 11.6384C57.189 12.1184 55.9741 12.9971 55.0838 14.1644C54.1936 15.3318 53.6676 16.7358 53.5716 18.2007C53.5395 18.9503 53.5736 19.7012 53.6734 20.4448C53.7866 21.3876 53.4735 21.8742 52.4816 21.8779C51.1805 21.8779 49.8756 21.9496 48.5744 21.9496C44.5087 21.9496 40.4393 21.9496 36.3736 21.9496V21.9949ZM35.2422 8.60231C37.0525 8.51557 38.8666 8.39865 40.6807 8.36094C41.5029 8.36094 41.8725 8.05544 41.9743 7.22949C42.1666 5.62284 42.3892 4.01618 42.7286 2.4397C42.9247 1.54963 42.6192 1.5006 41.8725 1.48175C36.6301 1.35352 31.9006 2.89983 27.5408 5.75861C27.2844 5.92456 26.8733 6.04902 26.9336 6.39976C26.994 6.75051 27.439 6.73543 27.7294 6.75428C28.6609 6.81463 29.238 7.10503 29.0004 8.2063C28.8571 8.90403 29.3775 8.93797 29.9018 8.90403C31.697 8.79466 33.4809 8.70037 35.2422 8.60231ZM49.1627 8.33831V8.22516C50.5808 8.14596 51.9989 8.02905 53.417 7.99887C54.2241 7.98002 54.5484 7.67075 54.5484 6.86743C54.5438 5.72331 54.6055 4.5799 54.7332 3.44292C54.8313 2.63205 54.5522 2.31147 53.7866 2.13044C51.1465 1.54209 48.4688 1.51192 45.7835 1.50815C45.2253 1.50815 44.9802 1.76084 44.8482 2.3341C44.471 4.03504 44.388 5.76992 44.1693 7.48972C44.0826 8.18745 44.3503 8.37602 45.0254 8.35339C46.402 8.30813 47.7824 8.33831 49.1627 8.33831ZM56.7472 7.79898C57.0225 7.79898 57.2978 7.74996 57.5731 7.76504C58.7046 7.81784 59.3835 7.35395 59.6475 6.18479C59.9115 5.01563 58.9912 4.7818 58.3614 4.35939C57.7315 3.93698 57.0301 3.69561 56.37 3.34486C55.8496 3.07331 55.6157 3.10349 55.5893 3.7899C55.5893 4.65357 55.4536 5.51346 55.3819 6.37336C55.2612 7.85178 55.265 7.85178 56.7472 7.79898Z" fill="#2B91DB"/>
<path d="M10.0985 23.9223C7.45841 22.4816 6.39485 20.528 6.7456 17.854C6.86479 16.6643 7.37275 15.547 8.19086 14.675C9.00898 13.8031 10.0917 13.225 11.2714 13.0303C12.466 12.7973 13.7042 12.9639 14.7948 13.5044C15.8853 14.0449 16.7677 14.9293 17.3058 16.0211C17.8923 17.0868 18.103 18.3189 17.9039 19.5189C17.7048 20.719 17.1075 21.8171 16.2083 22.6363C15.8952 22.938 15.552 23.2058 15.2201 23.4886C13.5682 24.2542 11.8182 23.9374 10.0985 23.9223Z" fill="#2B91DB"/>
<path d="M58.1773 23.6353C53.5723 20.8595 55.1601 15.1834 58.1396 13.6672C59.3621 13.0005 60.7876 12.808 62.1431 13.1267C63.4987 13.4454 64.6891 14.2529 65.4864 15.3946C67.2401 17.9102 66.8555 20.9198 64.5171 22.9375C64.1588 23.243 63.7628 23.507 63.3857 23.7899C61.6395 24.0087 59.9008 24.1331 58.1773 23.6353Z" fill="#2B91DB"/>
</svg>
