<svg width="79" height="21" viewBox="0 0 79 21" fill="none" xmlns="http://www.w3.org/2000/svg">
<path d="M39.482 20C34.2893 20 29.0979 20 23.9078 20C21.9998 20 21.9408 19.9707 22.2555 17.9085C22.6096 15.3987 22.527 13.0227 21.1265 10.8433C19.0927 7.68514 15.9495 6.50553 12.4719 7.63913C10.9338 8.17229 9.59338 9.20837 8.64182 10.5995C7.69026 11.9907 7.17621 13.6659 7.173 15.3861C7.1644 16.1309 7.21308 16.8751 7.31855 17.6115C7.49557 18.7869 7.01956 19.0755 6.00068 18.9668C4.68601 18.8086 3.43931 18.262 2.40191 17.3888C1.36451 16.5157 0.577926 15.3509 0.131327 14.0266C-0.262062 12.7717 0.276893 11.8975 1.10301 11.1529C3.31779 9.16175 5.92595 8.01142 8.69541 7.22501C14.1281 5.67729 19.6277 5.90735 25.1312 6.58918C26.1503 6.7168 27.1827 6.53554 28.1091 6.06631C31.2563 4.56878 34.3168 2.84537 37.6016 1.7034C43.3687 -0.291902 49.2774 -0.291903 55.2097 0.473592C62.8533 1.46079 70.1585 3.82002 77.4047 6.55573C79.1277 7.20828 79.2064 7.49691 78.1403 9.0279C77.3064 10.2242 77.2277 11.2993 77.983 12.6379C79.8516 15.955 79.1907 17.5989 75.6227 18.5568C73.1561 19.2178 72.3575 19.6528 72.4362 16.0177C72.5857 9.50476 67.4284 5.7233 61.681 8.02815C58.9272 9.13247 57.633 11.5503 57.2553 14.5662C57.176 15.6593 57.201 16.7581 57.3301 17.8457C57.4481 19.6653 57.2789 19.9372 55.5323 19.9372C51.8226 19.9916 48.1169 19.9749 44.4072 19.9833C42.7629 19.9833 41.1146 19.9833 39.4663 19.9833L39.482 20ZM32.2712 5.68147L32.3263 6.00775C32.6017 6.00775 32.8731 6.00775 33.1445 6.00775C34.1949 5.93246 34.9345 6.09978 34.6866 7.56802C34.5529 8.3628 35.2098 8.37535 35.7763 8.40463C39.3106 8.54985 42.8502 8.41843 46.3663 8.01143C46.7738 7.99341 47.1698 7.86231 47.5148 7.63115C47.8599 7.39999 48.1421 7.07681 48.3333 6.69376C49.1201 5.33427 49.482 3.79911 50.0878 2.36433C50.5126 1.34785 50.1704 1.17635 49.2735 1.214C47.2554 1.29766 45.2491 1.4357 43.2468 1.69923C39.305 2.21793 35.7448 3.84512 32.2712 5.68147ZM50.7251 6.76069C50.6031 7.40069 50.8037 7.68096 51.445 7.47181C53.3695 6.85487 55.1479 5.80808 56.6613 4.40147C57.2435 3.85767 57.1648 3.36407 56.5354 2.92903C55.5641 2.26778 54.466 1.84615 53.3214 1.69504C53.0355 1.63253 52.738 1.683 52.4845 1.837C52.2311 1.991 52.0391 2.23797 51.9446 2.53165C51.3965 3.89216 50.9826 5.30941 50.7093 6.76069H50.7251Z" fill="#2B91DB"/>
<path d="M15.8512 20.9577C12.4637 21.35 9.75044 18.9566 9.14839 16.1903C8.82584 14.7998 9.03311 13.342 9.73136 12.0902C10.4296 10.8384 11.5709 9.87848 12.9413 9.39044C15.8151 8.30356 18.9136 9.54739 20.3344 12.3568C21.0199 13.6454 21.1829 15.1394 20.7908 16.5403C20.3987 17.9413 19.4804 19.146 18.2193 19.9139C17.7938 20.1651 17.3523 20.3809 16.9148 20.6124C16.7225 20.5902 16.5275 20.6096 16.3437 20.6692C16.1599 20.7289 15.9917 20.8274 15.8512 20.9577Z" fill="#2B91DB"/>
<path d="M65.9726 20.8745L64.5446 21C63.9268 20.6862 63.313 20.3528 62.5749 20.5058C62.3703 20.2979 62.1738 20.2194 61.9411 20.4822H61.9812C61.917 19.9135 61.4196 19.6664 61.0586 19.3408C60.0189 18.4404 59.324 17.2205 59.0885 15.8822C58.853 14.5439 59.0908 13.167 59.7629 11.9786C61.2872 9.38982 64.0832 8.39746 67.132 9.36236C69.5028 10.1076 71.3119 12.9788 70.9549 15.6381C70.6741 17.7327 69.4065 19.2153 67.5251 20.2038C67.2724 20.3371 67.0156 20.4548 66.7589 20.596C66.43 20.5097 66.1251 20.5175 65.9726 20.8745Z" fill="#2B91DB"/>
</svg>
