<svg width="73" height="29" viewBox="0 0 73 29" fill="none" xmlns="http://www.w3.org/2000/svg">
<path d="M47.9627 0C53.5999 0 59.2371 0 64.8546 0C66.0331 0 66.6616 0.406231 67.2116 1.53149C69.3927 5.72889 70.8497 10.2873 71.5171 15.0021C71.5721 15.4083 71.5956 15.9121 72.0395 16.0827C73.0491 16.4889 73.0255 17.3014 72.9863 18.1748C72.9234 19.5763 72.8527 20.9818 72.8095 22.3833C72.7702 23.6832 71.847 23.8214 70.9239 23.9229C69.8475 24.0407 69.9261 23.212 69.8671 22.4849C69.5097 18.126 66.4652 14.9615 62.5094 14.8234C58.4475 14.6812 55.0455 17.6913 54.4013 22.038C54.1184 23.8986 54.1185 23.9189 52.3193 23.9229C42.2784 23.9229 32.2376 23.9229 22.2007 23.9514C21.1754 23.9514 20.7826 23.7117 20.7512 22.5458C20.6832 20.6164 19.9446 18.777 18.671 17.3652C17.3974 15.9534 15.6742 15.0639 13.8177 14.8599C11.9566 14.6753 10.0934 15.1894 8.56861 16.3082C7.04383 17.427 5.95928 19.0758 5.51315 20.9534C5.32852 21.7212 4.86498 22.428 5.02604 23.2811C5.1046 23.7117 4.85712 23.9026 4.46036 23.9067C4.37917 23.9067 4.29667 23.9067 4.21287 23.9067C0.351315 24.2276 0.150973 23.9067 0.00562487 19.9216C-0.0925835 17.2282 1.1252 14.8599 1.31769 12.256C1.3884 11.3501 2.28405 11.0901 3.06579 10.8748C7.4466 9.68879 11.9345 8.97543 16.4575 8.74615C19.0345 8.60803 21.0969 7.8565 22.68 5.63442C23.5481 4.41573 24.7895 3.49358 25.7873 2.38457C27.1583 0.832772 28.93 0.548411 30.8156 0.426542C36.5234 0.0528097 42.247 0.05281 47.9627 0ZM32.6147 9.44486C33.864 9.38799 35.6278 9.27831 37.3955 9.23362C37.5702 9.24857 37.7461 9.22672 37.9124 9.16938C38.0787 9.11205 38.2321 9.02042 38.3632 8.90004C38.4943 8.77966 38.6004 8.63304 38.6751 8.46903C38.7498 8.30503 38.7916 8.12705 38.7979 7.94587C39.0729 6.22752 39.3086 4.49697 39.6425 2.7908C39.8075 1.92553 39.5286 1.78742 38.7665 1.82398C36.4095 1.94585 34.0761 2.1449 31.7387 2.03522C28.9889 1.90928 26.9304 3.1036 25.2295 5.19163C25.0173 5.45161 24.7738 5.68723 24.5656 5.94722C24.3574 6.2072 23.941 6.38595 24.047 6.75968C24.1727 7.20247 24.6599 7.14153 25.0056 7.16591C25.9562 7.25122 26.6044 7.57214 26.4433 8.73396C26.3608 9.30674 26.6319 9.45705 27.1583 9.44893C28.8043 9.42455 30.4502 9.44486 32.6147 9.44486ZM47.3342 9.31487V9.18488H52.7553C53.4389 9.18488 53.867 8.95739 53.757 8.13274C53.4753 6.2921 53.0174 4.48497 52.39 2.738C52.3184 2.42616 52.1402 2.15161 51.8882 1.96497C51.6363 1.77833 51.3275 1.69219 51.019 1.72242C48.2692 1.79554 45.5193 1.8321 42.7695 1.87272C41.9563 1.87272 41.591 2.31551 41.5203 3.12391C41.371 4.6879 41.2217 6.25189 40.9939 7.80775C40.8328 8.9127 41.1707 9.36768 42.2863 9.33112C43.9637 9.27425 45.6529 9.31487 47.3342 9.31487ZM63.4168 9.14019V9.23769C64.6935 9.23769 65.9702 9.21737 67.243 9.23769C68.1465 9.23769 68.5944 8.92083 68.2251 7.94993C67.518 6.10023 66.7926 4.25323 66.0488 2.40895C65.9542 2.17328 65.7881 1.97575 65.5756 1.84608C65.3631 1.71641 65.1155 1.66161 64.8703 1.68992C62.0733 1.71429 59.275 1.72242 56.4754 1.71429C55.6898 1.71429 55.568 2.00678 55.8666 2.70956C56.6129 4.45635 57.3436 6.21127 58.0429 7.99056C58.1608 8.37478 58.4067 8.70326 58.7369 8.91751C59.0671 9.13176 59.4601 9.21787 59.846 9.1605C61.0284 9.09957 62.2265 9.14019 63.4168 9.14019Z" fill="#2B91DB"/>
<path d="M58.9972 28.2528C56.4171 26.3297 55.3114 23.9704 56.4417 20.9207C56.8672 19.8365 57.6236 18.8901 58.6189 18.1966C59.6142 17.503 60.8055 17.0921 62.0482 17.0138C63.3809 16.9296 64.7088 17.2312 65.8483 17.8768C66.9877 18.5224 67.8823 19.48 68.4083 20.6173C68.9407 21.6421 69.1198 22.7939 68.9213 23.9162C68.7227 25.0386 68.1561 26.0772 67.2984 26.891C66.7128 27.4524 66.0698 27.9455 65.4228 28.469C65.3044 28.4568 65.1853 28.4851 65.0879 28.5487C64.9906 28.6123 64.9218 28.7067 64.8945 28.8141L64.444 28.9014C64.3515 28.8467 64.2402 28.8265 64.1323 28.8448C64.0244 28.8631 63.928 28.9186 63.8624 29H61.0326L58.9972 28.2528Z" fill="#2B91DB"/>
<path d="M11.4556 28.8281L11.0077 28.7299C10.92 28.557 10.7909 28.4084 10.6317 28.297C10.4726 28.1857 10.2884 28.1151 10.0953 28.0915C7.498 26.2008 6.39659 23.7618 7.32539 20.582C7.68875 19.3367 8.42692 18.2324 9.44031 17.4179C10.4537 16.6034 11.6936 16.1181 12.9927 16.0272C15.664 15.7817 18.1093 17.2099 19.3627 19.7595C19.9266 20.9066 20.1229 22.1985 19.9252 23.4603C19.7274 24.7222 19.1452 25.8932 18.2572 26.8147C17.8462 27.2239 17.2873 27.5104 17.1435 28.1365H17.1846C17.1648 28.1087 17.1387 28.0859 17.1083 28.0702C17.0779 28.0545 17.0441 28.0463 17.0099 28.0463C16.9757 28.0463 16.9419 28.0545 16.9115 28.0702C16.8811 28.0859 16.855 28.1087 16.8352 28.1365L14.8831 29H12.294C12.192 28.8846 12.055 28.8054 11.9037 28.7744C11.7525 28.7433 11.5952 28.7622 11.4556 28.8281Z" fill="#2B91DB"/>
</svg>
