<svg width="15" height="15" viewBox="0 0 15 15" fill="none" xmlns="http://www.w3.org/2000/svg">
<mask id="mask0_1518_3290" style="mask-type:luminance" maskUnits="userSpaceOnUse" x="0" y="0" width="15" height="15">
<path d="M7.5008 14.319C11.2665 14.319 14.319 11.2665 14.319 7.5008C14.319 3.73512 11.2665 0.682617 7.5008 0.682617C3.73512 0.682617 0.682617 3.73512 0.682617 7.5008C0.682617 11.2665 3.73512 14.319 7.5008 14.319Z" fill="white"/>
<path fill-rule="evenodd" clip-rule="evenodd" d="M0 7.5C0 3.35776 3.35776 0 7.5 0C11.6422 0 15 3.35776 15 7.5C15 11.6422 11.6422 15 7.5 15C3.35776 15 0 11.6422 0 7.5ZM7.5 1.36364C4.11088 1.36364 1.36364 4.11088 1.36364 7.5C1.36364 10.8891 4.11088 13.6364 7.5 13.6364C10.8891 13.6364 13.6364 10.8891 13.6364 7.5C13.6364 4.11088 10.8891 1.36364 7.5 1.36364Z" fill="white"/>
<path fill-rule="evenodd" clip-rule="evenodd" d="M7.50311 2.72656C7.87967 2.72656 8.18493 3.03182 8.18493 3.40838V7.2203L10.8758 9.91152C11.1421 10.1778 11.142 10.6095 10.8758 10.8758C10.6095 11.142 10.1778 11.142 9.91153 10.8757L7.02096 7.98479C6.89311 7.85693 6.82129 7.68351 6.82129 7.5027V3.40838C6.82129 3.03182 7.12655 2.72656 7.50311 2.72656Z" fill="black"/>
</mask>
<g mask="url(#mask0_1518_3290)">
<path d="M-0.682617 -0.683594H15.681V15.68H-0.682617V-0.683594Z" fill="#2B91DB"/>
</g>
</svg>
