<svg width="79" height="32" viewBox="0 0 79 32" fill="none" xmlns="http://www.w3.org/2000/svg">
<path d="M50.1591 0C58.1782 0 66.1999 0 74.2242 0C77.3344 0 77.5857 0.257109 77.6957 3.32294C77.9038 9.23646 78.0884 15.15 78.0884 21.0674C78.0884 21.7219 78.0884 22.3374 78.6696 22.8477C79.2508 23.358 78.8974 24.0164 78.8542 24.5929C78.5911 28.2353 78.4301 28.3989 74.7465 28.8781C74.6247 28.8781 74.503 28.917 74.3813 28.9248C73.4388 28.9716 72.3156 29.4429 71.6048 28.9599C70.894 28.4768 71.5106 27.3081 71.4949 26.4472C71.4548 24.5275 70.6583 22.6997 69.2761 21.3554C67.8939 20.0112 66.0359 19.2576 64.1002 19.2559C62.1816 19.2754 60.3454 20.0319 58.9774 21.3664C57.6094 22.7009 56.8162 24.5096 56.7644 26.4122C56.765 26.9823 56.811 27.5515 56.9019 28.1145C57.165 29.9338 57.1729 29.9455 55.2525 29.9494C43.7331 29.9727 32.2137 29.9896 20.6944 30C19.1707 30 19.1235 29.9221 19.4141 28.3716C20.4705 22.6996 15.9073 18.1924 10.4801 19.513C7.05566 20.3467 3.71374 24.6202 4.93113 28.2002C5.06858 28.5898 4.96255 28.7612 4.53843 28.8625C2.33142 29.3806 0.576011 29.1663 0.13618 26.6108C-0.0798089 25.3448 0.0340774 24.0865 0.00266091 22.8282C0.00266091 22.5789 0.0419316 22.2945 0.297191 22.1971C1.40855 21.7569 1.21613 20.8181 1.22398 19.9416C1.22398 18.5976 1.32216 17.2497 1.28289 15.9057C1.24362 14.5617 2.16648 14.1527 3.18752 13.8177C5.17854 13.1554 7.25595 12.7503 9.17236 11.8699C10.0913 11.4531 11.0731 11.2661 12.0116 10.9155C12.4081 10.7888 12.7729 10.5803 13.0823 10.3037C13.3916 10.027 13.6383 9.68854 13.8063 9.31048C14.706 7.47713 15.8141 5.75185 17.109 4.16829C19.532 1.19205 22.7247 0.132454 26.475 0.155827C34.3723 0.210366 42.2696 0.155827 50.1709 0.155827L50.1591 0ZM25.7563 2.19712C24.1855 2.28672 22.1788 2.07246 20.5608 3.3658C18.7505 4.81496 17.5566 6.75107 16.512 8.79237C15.9897 9.81691 16.2646 10.2415 17.3799 10.1247C18.2007 10.0351 18.6287 10.2571 18.4913 11.157C18.3813 11.8894 18.7308 11.9945 19.4298 11.9673C21.4209 11.8855 23.3923 11.6323 25.3636 11.3596C28.1126 10.97 28.305 10.7441 28.6388 7.99766C28.7527 7.06661 28.898 6.13947 28.9883 5.20842C29.2868 2.11531 29.2829 2.11531 25.7563 2.19712Z" fill="#2B91DB"/>
<path d="M61.9473 31.692C58.1261 29.7511 56.8843 25.7614 59.0856 22.514C59.7631 21.5496 60.7141 20.8096 61.8161 20.3891C62.9182 19.9686 64.121 19.8868 65.27 20.1542C66.3761 20.3951 67.3917 20.9428 68.1999 21.7345C69.0082 22.5261 69.5762 23.5295 69.8387 24.6291C70.4492 27.6857 69.3528 29.7304 66.1006 31.634C64.7589 32.1013 63.3016 32.1217 61.9473 31.692Z" fill="#2B91DB"/>
<path d="M9.74656 31.6329C6.37099 29.6099 5.17546 26.5278 6.57368 23.4581C7.07074 22.3924 7.87042 21.4966 8.87306 20.8823C9.8757 20.2681 11.0369 19.9625 12.2121 20.0037C13.4538 20.0584 14.6486 20.4939 15.6343 21.251C16.6201 22.0081 17.349 23.0502 17.7222 24.2359C18.0819 25.3551 18.0925 26.5574 17.7526 27.6828C17.4127 28.8083 16.7384 29.8036 15.8193 30.5366C15.3849 30.8882 14.8885 31.1654 14.4211 31.4757C12.9385 32.1157 11.2688 32.1718 9.74656 31.6329Z" fill="#2B91DB"/>
</svg>
